<svg width="594" height="593" viewBox="0 0 594 593" fill="none" xmlns="http://www.w3.org/2000/svg">
<mask id="mask0_247_1250" style="mask-type:luminance" maskUnits="userSpaceOnUse" x="-1" y="0" width="595" height="593">
<path d="M592.642 296.419C592.642 459.85 460.086 592.338 296.569 592.338C133.052 592.338 0.496094 459.85 0.496094 296.419C0.496094 132.988 133.052 0.5 296.569 0.5C460.086 0.5 592.642 132.988 592.642 296.419Z" fill="white" stroke="white"/>
</mask>
<g mask="url(#mask0_247_1250)">
<path d="M615.803 626.53H-35.4062V-24.3186C5.59933 -9.25712 41.2956 14.1592 71.6601 45.9757C84.4927 69.7985 97.3027 93.5987 110.135 117.422C131.734 157.051 153.603 235.858 214.604 205.193C241.398 191.713 239.568 165.925 246.979 139.89C261.574 88.6535 284.347 23.869 328.018 -6.43451C360.235 -28.8122 396.384 -24.3186 434.542 -24.3186H615.803V626.53ZM-34.8866 626.01H615.283V-23.7992C554.961 -23.7992 494.616 -23.8444 434.294 -23.7992C396.248 -23.7992 360.168 -28.2476 328.041 -5.86999C284.46 24.4561 262.184 89.1955 247.498 140.273C240.065 166.151 241.556 192.367 214.829 205.69C154.575 235.7 132.547 159.648 110.926 119.77C98.0709 95.5633 85.1931 71.3566 72.3379 47.1499C41.8605 15.2883 6.11896 -8.35389 -34.864 -23.7992C-34.9318 192.796 -34.864 409.415 -34.864 626.01H-34.8866Z" stroke="#FFD3D3" stroke-width="0.35" stroke-miterlimit="10"/>
<path d="M615.553 588.277H-35.1367V587.758H615.553V588.277Z" stroke="#FFD3D3" stroke-width="0.35" stroke-miterlimit="10"/>
<path d="M615.553 575.519H-35.1367V575H615.553V575.519Z" stroke="#FFD3D3" stroke-width="0.35" stroke-miterlimit="10"/>
<path d="M615.553 562.762H-35.1367V562.242H615.553V562.762Z" stroke="#FFD3D3" stroke-width="0.35" stroke-miterlimit="10"/>
<path d="M615.553 550.027H-35.1367V549.508H615.553V550.027Z" stroke="#FFD3D3" stroke-width="0.35" stroke-miterlimit="10"/>
<path d="M615.553 537.269H-35.1367V536.75H615.553V537.269Z" stroke="#FFD3D3" stroke-width="0.35" stroke-miterlimit="10"/>
<path d="M615.553 524.504H-35.1367V523.984H615.553V524.504Z" stroke="#FFD3D3" stroke-width="0.35" stroke-miterlimit="10"/>
<path d="M615.556 511.752C553.856 511.752 491.387 506.829 429.822 508.907C384.705 510.442 341.35 519.633 296.842 522.162C241.49 525.323 190.047 509.223 135.938 502.155C106.545 498.317 82.3931 508.523 53.4068 511.459C24.443 514.394 -6.12475 511.73 -35.1562 511.73V511.21C-6.14734 511.21 24.4656 513.942 53.4068 510.939C82.4383 507.913 106.499 497.481 135.983 501.387C190.16 508.591 241.513 525.143 297 521.891C341.417 519.294 384.637 509.878 429.709 508.297C491.297 506.152 553.833 511.21 615.556 511.21V511.73V511.752Z" stroke="#FFD3D3" stroke-width="0.35" stroke-miterlimit="10"/>
<path d="M615.553 499.016C553.288 499.016 488.876 490.887 426.972 494.433C382.917 496.962 343.448 511.775 300.951 515.817C241.984 521.417 193.003 493.394 137.154 483.21C105.457 477.452 83.9489 493.574 53.4489 498.384C25.1178 502.855 -6.67004 499.016 -35.1367 499.016V498.497C-6.69263 498.497 25.1403 502.381 53.4489 497.865C84.0167 492.987 105.412 476.616 137.2 482.465C193.116 492.739 242.007 521.281 301.109 515.568C343.538 511.458 382.826 496.42 426.859 493.845C488.763 490.232 553.265 498.497 615.553 498.497V499.016Z" stroke="#FFD3D3" stroke-width="0.35" stroke-miterlimit="10"/>
<path d="M615.553 486.262C553.062 486.262 486.165 474.949 424.374 480.075C404.289 481.746 381.832 483.281 362.471 488.588C342.069 494.188 325.984 506.065 304.746 508.933C242.346 517.311 195.489 477.568 138.329 464.81C104.079 457.155 85.553 478.765 53.4715 485.336C25.8407 491.004 -7.28004 486.262 -35.1367 486.262V485.742C-7.30263 485.742 25.8633 490.507 53.4715 484.794C85.6208 478.155 104.011 456.365 138.374 464.087C195.556 476.936 242.368 517.107 304.882 508.617C326.119 505.727 342.092 493.736 362.493 488.091C381.81 482.739 404.267 481.181 424.307 479.488C486.075 474.294 553.107 485.742 615.576 485.742V486.262H615.553Z" stroke="#FFD3D3" stroke-width="0.35" stroke-miterlimit="10"/>
<path d="M615.553 473.501C553.175 473.501 483.883 459.749 422.522 466.162C403.341 468.172 380.906 470.136 362.696 476.21C342.566 482.917 328.695 496.782 307.367 500.304C243.023 510.962 196.776 462.843 139.301 448.165C102.656 438.794 87.1119 464.491 53.4715 472.417C26.4055 478.807 -7.77708 473.478 -35.1367 473.478V472.959C-7.79967 472.959 26.4281 478.31 53.4715 471.897C87.2022 463.926 102.61 438.116 139.346 447.555C196.799 462.301 243.069 510.624 307.458 499.898C328.785 496.353 342.589 482.443 362.719 475.691C380.906 469.594 403.341 467.63 422.476 465.597C483.793 459.117 553.175 472.959 615.553 472.959V473.478V473.501Z" stroke="#FFD3D3" stroke-width="0.35" stroke-miterlimit="10"/>
<path d="M615.53 460.76C553.491 460.76 482.957 446.105 422.115 453.195C403.25 455.385 380.68 457.531 362.855 463.74C342.747 470.74 329.689 485.283 308.248 489.076C243.43 500.479 197.115 449.672 139.775 434.385C102.271 424.382 87.6315 451.253 53.3359 459.473C26.5185 465.908 -8.02559 460.805 -35.1367 460.782C-35.1367 460.579 -35.1367 460.466 -35.1367 460.263C-8.003 460.263 26.4733 465.253 53.3133 458.84C87.5185 450.666 102.407 423.885 139.798 433.821C197.183 449.063 243.43 500.005 308.316 488.602C329.756 484.831 342.838 470.289 362.945 463.289C380.793 457.079 403.341 454.911 422.205 452.698C483.002 445.563 553.559 460.218 615.553 460.218C615.553 460.421 615.553 460.534 615.553 460.737L615.53 460.76Z" stroke="#FFD3D3" stroke-width="0.35" stroke-miterlimit="10"/>
<path d="M615.53 448.008C555.434 448.663 484.358 434.843 425.73 443.65C406.639 446.518 384.25 449.972 366.063 456.137C345.82 463.002 331.88 477.205 310.282 480.411C243.295 490.37 198.787 436.469 140.363 421.091C105.954 412.037 84.0619 434.459 51.8448 441.143C24.44 446.834 -7.34782 446.585 -35.1367 448.008V447.488C-7.30263 445.976 24.327 445.953 51.777 440.285C83.9263 433.646 106.157 411.495 140.43 420.55C198.9 435.995 243.34 490.008 310.44 480.14C332.038 476.957 346.023 462.776 366.289 455.934C384.498 449.769 406.888 446.247 425.978 443.334C484.471 434.414 555.569 448.166 615.553 447.466C615.553 447.669 615.553 447.782 615.553 447.985L615.53 448.008Z" stroke="#FFD3D3" stroke-width="0.35" stroke-miterlimit="10"/>
<path d="M615.533 435.247C558.6 437.392 487.682 425.854 432.759 437.392C393.425 445.657 352.126 471.761 314.238 475.644C244.518 482.78 201.456 425.786 142.105 408.06C90.0294 392.502 16.8971 426.283 -35.1562 435.27C-35.1562 435.067 -35.1562 434.954 -35.1562 434.75C17.0101 425.425 89.7131 391.756 142.196 407.541C201.569 425.402 244.563 482.509 314.419 475.509C352.329 471.715 393.81 445.544 433.075 437.189C487.817 425.537 558.736 436.963 615.533 434.75C615.533 434.954 615.533 435.067 615.533 435.27V435.247Z" stroke="#FFD3D3" stroke-width="0.35" stroke-miterlimit="10"/>
<path d="M615.554 422.489C561.987 426.621 492.311 418.537 441.455 432.718C402.912 443.467 358.54 470.699 319.161 472.754C287.554 474.402 244.177 454.35 215.507 441.728C189.073 430.099 171.858 404.853 144.498 395.121C80.5383 372.359 22.1138 403.092 -35.1133 422.489C-35.1133 422.286 -35.1133 422.173 -35.1133 421.969C22.3623 402.053 80.0864 371.479 144.588 394.601C171.925 404.402 189.005 429.692 215.416 441.344C244.154 454.012 287.667 474.244 319.365 472.641C358.857 470.654 403.251 443.399 441.817 432.537C492.514 418.266 562.122 426.192 615.554 421.969C615.554 422.173 615.554 422.286 615.554 422.489Z" stroke="#FFD3D3" stroke-width="0.35" stroke-miterlimit="10"/>
<path d="M615.553 409.759C567.159 412.943 494.908 412.582 450.039 427.982C410.638 441.508 366.718 469.44 324.086 469.802C291.123 470.073 243.859 446.34 214.218 432.25C188.146 419.853 173.642 393.343 146.892 382.233C119.668 370.943 70.9582 365.049 43.0563 367.646C11.8333 370.581 -8.16115 395.759 -35.1367 409.737C-35.1367 409.533 -35.1367 409.42 -35.1367 409.217C-8.22893 395.104 11.6526 369.588 42.9207 366.675C70.7774 364.078 119.803 370.378 146.96 381.714C173.687 392.869 188.101 419.446 214.173 431.866C243.859 446.001 291.236 469.869 324.244 469.666C367.034 469.373 410.864 441.417 450.333 427.779C495.044 412.333 567.295 412.469 615.53 409.262V409.782L615.553 409.759Z" stroke="#FFD3D3" stroke-width="0.35" stroke-miterlimit="10"/>
<path d="M615.553 396.994C570.368 400.517 497.958 405.349 456.795 421.472C416.083 437.414 374.128 465.888 328.13 464.804C293.97 463.991 246.141 437.256 215.189 422.714C188.282 410.068 175.788 381.458 148.79 369.265C122.582 357.41 67.1626 342.822 40.5485 345.013C8.21849 347.7 -9.62967 380.058 -35.1367 396.994V396.475C-9.67485 379.449 8.08293 346.864 40.4581 344.177C67.027 341.987 122.673 356.868 148.835 368.723C175.856 380.962 188.327 409.639 215.28 422.307C246.254 436.872 294.06 463.698 328.243 464.533C374.354 465.662 416.241 437.165 456.998 421.156C498.049 405.033 570.481 399.997 615.553 396.497V397.017V396.994Z" stroke="#FFD3D3" stroke-width="0.35" stroke-miterlimit="10"/>
<path d="M615.554 384.239C590.386 385.932 565.534 395.281 540.049 398.352C513.729 401.513 484.2 401.536 459.981 411.517C418.727 428.52 378.083 457.649 330.367 455.798C296.343 454.488 250.977 426.51 219.596 412.736C190.609 400 178.319 368.681 149.672 356.103C123.622 344.655 65.1527 325.348 39.2164 327.335C6.05045 329.864 -9.96771 366.061 -35.1133 384.262C-35.1133 384.058 -35.1133 383.945 -35.1133 383.742C-9.94512 365.519 6.02785 329.277 39.1938 326.748C65.1301 324.783 123.6 344.158 149.672 355.561C178.409 368.139 190.745 399.617 219.844 412.33C251.248 426.036 296.411 454.014 330.39 455.346C378.128 457.198 418.75 428.046 460.004 411.042C484.2 401.062 513.751 401.039 540.072 397.878C565.556 394.829 590.408 385.436 615.576 383.765C615.576 383.968 615.576 384.081 615.576 384.284L615.554 384.239Z" stroke="#FFD3D3" stroke-width="0.35" stroke-miterlimit="10"/>
<path d="M615.553 371.502C590.904 372.879 565.646 382.928 540.681 386.36C514.609 389.951 485.261 391.17 461.223 400.744C419.11 417.522 379.483 445.906 330.773 443.174C297.901 441.345 257.822 415.602 227.209 402.822C195.669 389.657 180.51 356.508 149.196 343.886L118.47 338.918C92.3533 329.637 65.8522 321.643 38.9444 314.959C6.07219 317.466 -10.1041 353.573 -35.1367 371.525V371.005C-10.1267 353.076 6.07219 316.992 38.9218 314.508C65.807 321.192 92.3082 329.185 118.403 338.489C128.637 340.137 138.894 341.785 149.129 343.434C180.532 356.079 195.805 389.341 227.457 402.528C258.025 415.264 297.946 440.825 330.751 442.699C379.528 445.477 419.088 417.206 461.291 400.428C485.329 390.876 514.654 389.567 540.704 385.931C565.646 382.476 590.904 372.383 615.53 371.005C615.53 371.208 615.53 371.321 615.53 371.525L615.553 371.502Z" stroke="#FFD3D3" stroke-width="0.35" stroke-miterlimit="10"/>
<path d="M615.553 358.74C592.011 360.275 566.504 371.746 542.759 376.262C516.981 381.162 488.56 384.911 464.454 394.101C419.359 411.263 382.442 435.424 330.886 431.382C299.663 428.944 262.634 409.163 233.354 397.601C198.629 383.872 181.549 346.93 147.231 333.494C137.019 331.846 126.784 330.175 116.573 328.526C90.93 318.975 64.8356 310.823 38.3118 304.117C6.11737 306.397 -10.3752 341.51 -35.1367 358.717V358.198C-10.3752 341.014 6.11738 305.946 38.2892 303.688C64.7904 310.394 90.8622 318.546 116.482 328.12C126.694 329.768 136.906 331.439 147.14 333.088C181.572 346.546 198.719 383.692 233.557 397.443C262.769 408.959 299.731 428.424 330.886 430.908C382.601 434.995 419.359 411.06 464.634 393.875C488.763 384.708 517.117 380.846 542.872 375.879C566.55 371.317 592.057 359.756 615.553 358.22V358.74Z" stroke="#FFD3D3" stroke-width="0.35" stroke-miterlimit="10"/>
<path d="M615.555 345.99C593.459 347.909 567.726 361.413 545.743 367.329C520.191 374.193 493.442 380.877 468.906 389.865C418.57 408.336 386.759 425.7 330.843 420.191C301.314 417.278 265.911 405.355 237.942 395.329C199.851 381.645 181.844 339.306 144.725 324.719C134.581 322.98 124.437 321.219 114.292 319.48C89.1921 309.522 63.6173 301.099 37.5228 294.212C6.16425 296.018 -10.5769 329.754 -35.0898 345.99V345.471C-10.5769 329.28 6.16425 295.612 37.5002 293.828C63.5721 300.738 89.1469 309.183 114.225 319.141C124.369 320.903 134.513 322.641 144.657 324.403C181.89 339.058 199.918 381.623 238.145 395.284C266.07 405.265 301.404 416.849 330.888 419.784C387.008 425.362 418.547 408.291 469.155 389.752C493.735 380.742 520.395 373.945 545.947 366.99C567.862 361.029 593.595 347.435 615.622 345.493V346.013L615.555 345.99Z" stroke="#FFD3D3" stroke-width="0.35" stroke-miterlimit="10"/>
<path d="M615.554 333.25C594.904 335.666 569.036 351.45 548.928 358.698C523.444 367.866 499.066 377.124 473.604 386.27C445.431 396.386 424.443 413.141 393.694 414.27C373.293 415.015 350.949 411.47 330.638 409.189C303.934 406.208 265.843 403.634 241.127 393.812C201.273 377.96 181.798 333.092 142.6 317.24C132.524 315.32 122.448 313.424 112.394 311.504C87.7227 300.936 62.4868 291.972 36.686 284.61C6.14082 285.807 -10.8262 318.053 -35.1133 333.25V332.73C-10.8262 317.579 6.14082 285.401 36.6634 284.227C62.4642 291.611 87.7001 300.598 112.349 311.188C122.425 313.107 132.479 315.027 142.555 316.946C181.844 332.843 201.318 377.892 241.262 393.721C265.956 403.499 304.002 405.734 330.661 408.737C350.972 411.018 373.271 414.767 393.694 414.089C424.488 413.073 445.59 396.25 473.83 386.111C499.337 376.944 523.602 367.595 549.086 358.337C569.126 351.066 594.995 335.192 615.599 332.73C615.599 332.934 615.599 333.046 615.599 333.25H615.554Z" stroke="#FFD3D3" stroke-width="0.35" stroke-miterlimit="10"/>
<path d="M615.553 320.491C596.078 323.336 570.209 341.22 551.684 349.462C526.018 360.866 504.488 371.953 477.738 381.437C448.616 391.779 424.668 410.228 392.903 408.895C372.05 408.015 351.219 400.315 330.412 397.876C304.272 394.805 267.559 399.479 243.136 390.831C201.543 376.063 182.023 327.672 141.922 310.804C131.868 308.659 121.814 306.514 111.76 304.368C87.1796 292.852 61.9437 282.984 36.0752 274.765C6.16256 275.239 -11.053 306.22 -35.1367 320.514V319.994C-11.053 305.723 6.13997 274.788 36.0526 274.336C61.9437 282.601 87.1796 292.491 111.76 304.075C121.814 306.243 131.868 308.388 141.922 310.556C182.023 327.469 201.566 375.95 243.182 390.65C267.604 399.276 304.249 394.353 330.389 397.402C351.219 399.84 371.982 407.699 392.858 408.624C424.668 410.047 448.729 391.531 477.874 381.189C504.668 371.682 526.086 360.55 551.774 349.079C570.255 340.814 596.123 322.84 615.553 319.994V320.514V320.491Z" stroke="#FFD3D3" stroke-width="0.35" stroke-miterlimit="10"/>
<path d="M615.553 307.731C602.765 309.763 593.141 316.244 586.702 327.173C574.254 327.692 563.138 331.554 553.333 338.779C527.374 351.763 508.306 363.754 480.404 373.531C450.898 383.873 424.51 403.677 392.383 400.764C371.056 398.822 351.649 388.277 330.186 385.748C303.956 382.654 268.915 392.07 244.153 384.122C202.741 370.844 182.927 322.295 143.684 305.044C133.54 302.605 123.396 300.166 113.229 297.727C88.1963 284.811 62.4407 273.589 35.9396 263.992C6.29812 263.743 -11.166 293.911 -35.1367 307.708V307.189C-11.1886 293.415 6.29812 263.246 35.9396 263.517C62.4633 273.159 88.2641 284.472 113.319 297.434C123.486 299.895 133.63 302.334 143.797 304.795C182.972 322.047 202.786 370.506 244.153 383.715C268.937 391.641 303.91 382.112 330.163 385.206C351.649 387.735 370.988 398.348 392.338 400.312C424.465 403.27 450.921 383.422 480.427 373.08C508.374 363.302 527.374 351.289 553.333 338.26C563.138 331.012 574.254 327.128 586.702 326.631C593.118 315.679 602.72 309.199 615.53 307.166C615.53 307.369 615.53 307.482 615.53 307.686L615.553 307.731Z" stroke="#FFD3D3" stroke-width="0.35" stroke-miterlimit="10"/>
<path d="M615.556 294.999C602.836 297.054 593.189 303.489 586.615 314.261C574.053 314.531 562.938 318.415 553.268 325.935C527.106 339.483 509.258 351.632 480.769 361.545C451.263 371.797 424.603 392.277 392.431 389.003C370.968 386.813 352.126 375.432 330.437 372.903C303.868 369.787 269.799 380.897 244.518 372.971C205.816 360.845 186.816 316.293 150.487 299.651C140.027 296.964 129.566 294.276 119.083 291.589C92.4016 276.415 64.816 263.092 36.3268 251.644C6.50452 251.102 -11.1177 281.18 -35.1562 294.999V294.48C-11.1177 280.66 6.50452 250.582 36.3268 251.124C64.929 262.663 92.6275 276.099 119.422 291.409C129.905 294.096 140.388 296.806 150.871 299.493C187.042 316.09 205.997 360.461 244.54 372.542C269.844 380.468 303.891 369.268 330.482 372.384C352.149 374.913 370.991 386.316 392.454 388.506C424.626 391.803 451.263 371.3 480.746 361.026C509.235 351.113 527.038 338.941 553.223 325.37C562.893 317.828 574.008 313.944 586.57 313.696C593.167 302.948 602.836 296.557 615.556 294.48C615.556 294.683 615.556 294.796 615.556 294.999Z" stroke="#FFD3D3" stroke-width="0.35" stroke-miterlimit="10"/>
<path d="M615.554 282.239C596.463 284.903 568.222 301.907 551.572 311.029C539.733 318.007 529.205 326.655 519.942 336.975C506.318 339.639 493.124 343.636 480.337 348.965C451.464 359.601 425.663 380.849 393.807 377.327C372.525 374.978 354.564 362.943 332.943 360.662C305.628 357.794 272.033 372.269 245.871 364.569C210.943 354.294 192.304 315.094 160.087 299.378C149.175 296.149 138.285 292.897 127.373 289.668C98.3638 270.632 68.1801 253.742 36.799 238.974C6.63785 238.003 -10.9392 268.306 -35.1133 282.261V281.742C-10.9166 267.787 6.63785 237.483 36.8216 238.477C68.3157 253.426 98.6123 270.497 127.712 289.69C138.646 292.965 149.559 296.239 160.493 299.513C192.552 315.207 211.191 354.159 245.961 364.343C272.191 372.02 305.741 357.365 333.101 360.21C354.722 362.469 372.638 374.549 393.898 376.898C425.731 380.42 451.486 359.149 480.337 348.491C493.102 343.162 506.296 339.142 519.897 336.478C529.137 326.136 539.665 317.465 551.481 310.442C568.109 301.297 596.44 284.406 615.576 281.764V282.284L615.554 282.239Z" stroke="#FFD3D3" stroke-width="0.35" stroke-miterlimit="10"/>
<path d="M615.553 269.481C595.016 271.401 565.623 284.859 548.792 294.84C537.157 302.72 527.012 312.25 518.36 323.45C505.052 326.588 492.152 330.947 479.704 336.524C451.982 347.814 427.244 370.124 396.111 366.308C375.122 363.734 358.562 350.773 337.054 348.944C307.842 346.46 277.093 364.931 248.423 359.15C217.381 352.895 196.686 317.759 169.146 303.691C157.804 299.537 146.463 295.404 135.121 291.249C103.898 267.517 71.2519 245.952 37.1596 226.578C6.54664 224.839 -10.7593 255.301 -35.1367 269.481V268.962C-10.7367 254.781 6.54663 224.32 37.1822 226.081C71.3648 245.659 104.124 267.427 135.415 291.362C146.779 295.54 158.143 299.74 169.484 303.917C196.867 317.917 217.629 352.805 248.536 358.969C277.274 364.705 307.955 346.008 337.235 348.469C358.743 350.276 375.235 363.282 396.201 365.879C427.311 369.695 452.005 347.34 479.658 336.027C492.107 330.45 504.985 326.069 518.269 322.908C526.9 311.663 537.021 302.088 548.656 294.162C565.51 284.136 594.903 270.836 615.53 268.962C615.53 269.165 615.53 269.278 615.53 269.481H615.553Z" stroke="#FFD3D3" stroke-width="0.35" stroke-miterlimit="10"/>
<path d="M615.554 256.723C592.6 257.829 563.659 266.523 545.584 278.107C534.22 287.026 524.528 297.572 516.508 309.765C503.585 313.514 491.091 318.323 479.004 324.194C452.706 336.185 429.074 359.737 398.823 355.604C378.151 352.782 363.33 338.827 341.935 337.472C311.299 335.53 282.584 359.511 252.219 355.13C224.295 351.088 201.612 321.959 177.212 309.517L141.99 294.004C108.756 265.303 73.9186 238.748 37.4542 214.316C6.36674 211.809 -10.4873 242.316 -35.1133 256.723V256.203C-10.4648 241.774 6.34415 211.267 37.4768 213.797C74.0316 238.432 108.96 265.191 142.261 294.072C154.009 299.288 165.78 304.504 177.528 309.72C201.815 322.094 224.611 351.02 252.423 354.972C282.855 359.285 311.457 335.078 342.138 337.02C363.533 338.353 378.286 352.33 398.936 355.175C429.165 359.33 452.751 335.733 478.981 323.698C491.046 317.827 503.54 312.994 516.44 309.223C524.438 297.007 534.107 286.417 545.471 277.452C563.613 265.778 592.509 257.287 615.576 256.226C615.576 256.429 615.576 256.542 615.576 256.745L615.554 256.723Z" stroke="#FFD3D3" stroke-width="0.35" stroke-miterlimit="10"/>
<path d="M615.532 243.968C589.957 244.33 562.326 247.988 542.535 261.604C531.42 271.539 522.157 283.056 514.746 296.153C502.185 300.443 490.03 305.659 478.305 311.824C453.362 324.446 430.815 349.263 401.354 344.769C380.998 341.676 367.917 326.863 346.612 325.937C314.666 324.537 289.272 352.65 257.236 350.911C231.864 349.534 205.657 324.379 183.72 313.721C171.655 307.624 159.591 301.527 147.526 295.43C112.643 262.191 75.998 231.007 37.5906 201.923C6.14165 198.874 -10.238 229.336 -35.0898 243.991V243.471C-10.238 228.816 6.11906 198.332 37.5906 201.403C76.0658 230.668 112.779 262.01 147.73 295.43C159.817 301.549 171.881 307.691 183.968 313.811C205.838 324.424 232.181 349.398 257.484 350.731C289.566 352.402 314.847 324.108 346.816 325.485C368.12 326.411 381.134 341.247 401.49 344.34C430.95 348.834 453.43 323.972 478.327 311.327C490.053 305.162 502.185 299.924 514.746 295.633C522.134 282.491 531.375 270.952 542.49 260.972C562.349 247.265 589.935 243.788 615.6 243.471V243.991L615.532 243.968Z" stroke="#FFD3D3" stroke-width="0.35" stroke-miterlimit="10"/>
<path d="M615.533 231.23C587.903 231.185 561.605 230.665 540.3 246.088C529.365 256.791 520.418 269.053 513.505 282.872C501.147 287.434 489.241 292.898 477.764 299.334C453.77 312.363 432.217 338.241 403.163 333.453C383.055 330.134 371.443 314.598 350.206 314.056C317.989 313.221 295.916 344.902 263.428 344.902C239.073 344.902 209.251 322.818 188.149 313.198C175.859 306.514 163.568 299.83 151.255 293.124C115.198 256.385 77.2645 221.723 37.4338 189.116C5.89451 185.978 -10.2592 216.462 -35.1562 231.23V230.71C-10.2592 215.943 5.89451 185.481 37.4338 188.597C77.3097 221.294 115.288 256.069 151.368 292.921C163.681 299.627 175.972 306.334 188.285 313.018C209.386 322.615 239.367 344.631 263.721 344.586C296.187 344.518 318.124 312.747 350.319 313.56C371.556 314.102 383.123 329.637 403.231 332.979C432.262 337.789 453.793 311.889 477.764 298.837C489.241 292.424 501.147 286.914 513.505 282.375C520.418 268.533 529.32 256.249 540.277 245.501C561.627 230.01 587.857 230.665 615.579 230.71C615.579 230.914 615.579 231.027 615.579 231.23H615.533Z" stroke="#FFD3D3" stroke-width="0.35" stroke-miterlimit="10"/>
<path d="M615.554 218.473C586.906 218.767 561.738 215.899 539.552 232.315C528.64 243.312 519.829 255.89 513.119 270.025C500.738 274.474 488.832 279.984 477.468 286.555C453.655 299.81 433.006 326.229 403.793 321.148C383.98 317.716 372.932 301.706 351.898 301.548C320.607 301.322 302.556 336.052 270.858 335.578C245.216 335.194 212.592 314.758 190.067 304.935C177.619 298.184 165.193 291.409 152.744 284.658C116.28 246.315 77.8046 210.096 37.3412 175.999C6.2086 173.334 -10.5777 203.728 -35.1133 218.428C-35.1133 218.225 -35.1133 218.112 -35.1133 217.909C-10.6455 203.186 6.34415 172.882 37.4316 175.592C77.8272 209.689 116.257 245.886 152.699 284.184C165.148 290.935 177.619 297.71 190.067 304.461C212.637 314.284 245.464 334.787 271.152 335.149C302.804 335.578 320.698 300.848 351.921 301.029C372.932 301.164 384.002 317.129 403.793 320.561C433.051 325.62 453.587 299.222 477.445 285.945C488.832 279.374 500.716 273.864 513.096 269.393C519.851 255.28 528.663 242.748 539.575 231.751C561.783 215.335 586.906 218.247 615.554 217.909C615.554 218.112 615.554 218.225 615.554 218.428V218.473Z" stroke="#FFD3D3" stroke-width="0.35" stroke-miterlimit="10"/>
<path d="M615.53 205.736C587.041 206.142 563.884 202.213 540.591 217.703C529.294 227.729 519.692 239.223 511.785 252.207C499.111 256.001 487.295 261.533 476.337 268.826C452.366 283.21 436.1 309.991 405.645 306.085C386.938 303.691 374.467 289.894 354.879 290.64C324.809 291.791 310.011 325.798 279.42 326.566C252.964 327.243 214.534 307.124 191.106 297.594C178.702 291.023 166.299 284.452 153.918 277.904C119.397 241.187 83.4293 205.939 45.9933 172.203C15.3803 166.716 -9.56189 193.045 -35.1367 205.713C-35.1367 205.51 -35.1367 205.397 -35.1367 205.194C-9.42633 192.684 15.9452 166.603 46.5807 172.271C83.8359 205.984 119.668 241.142 154.054 277.791C166.434 284.34 178.815 290.888 191.196 297.436C214.647 306.943 253.326 326.972 279.804 326.25C310.372 325.414 325.08 291.475 355.105 290.256C374.625 289.465 387.164 303.104 405.826 305.43C436.348 309.246 452.367 282.42 476.315 267.991C487.227 260.63 499.043 255.097 511.762 251.371C519.76 238.455 529.407 227.007 540.726 217.049C564.087 201.648 587.131 205.623 615.598 205.216C615.598 205.419 615.598 205.532 615.598 205.736H615.53Z" stroke="#FFD3D3" stroke-width="0.35" stroke-miterlimit="10"/>
<path d="M615.53 192.98C587.719 193.025 567.431 187.493 542.556 200.273C530.311 208.425 519.286 218.022 509.503 229.109C495.88 230.916 484.154 236.335 474.281 245.367C449.565 262.055 441.793 286.284 409.825 288.587C393.038 289.806 378.195 279.261 360.889 281.361C331.903 284.884 318.776 316.633 288.977 319.162C261.933 321.465 217.539 305.026 193.229 296.31L158.482 278.381C127.959 244.08 96.5556 210.57 64.3159 177.873C32.257 166.312 -4.50114 185.189 -35.1367 192.957C-35.1367 192.754 -35.1367 192.641 -35.1367 192.438C-4.23003 184.896 33.0478 166.357 65.197 178.234C97.2108 210.886 128.389 244.306 158.708 278.516C170.253 284.477 181.775 290.416 193.32 296.377C217.675 305.071 262.295 321.284 289.361 318.913C319.115 316.316 332.219 284.681 361.183 281.045C378.398 278.877 393.355 289.197 410.051 287.864C442.042 285.335 449.52 261.106 474.214 244.351C484.041 235.228 495.767 229.809 509.435 228.116C519.308 217.141 530.401 207.612 542.692 199.551C567.611 186.905 587.809 192.505 615.576 192.505C615.576 192.709 615.576 192.822 615.576 193.025L615.53 192.98Z" stroke="#FFD3D3" stroke-width="0.35" stroke-miterlimit="10"/>
<path d="M615.554 180.215C588.623 179.785 571.317 172.356 545.02 181.344C521.704 189.315 490.3 204.444 471.752 218.85C447.804 237.457 446.877 261.528 415.225 269.77C400.45 273.632 383.347 268.596 368.436 272.909C341.754 280.609 326.843 308.158 298.512 312.425C270.994 316.558 221.222 306.374 196.032 298.629C141.041 281.716 132.976 214.65 87.7227 188.524C52.5008 168.179 2.86489 178.611 -35.1133 180.215C-35.1133 180.011 -35.1133 179.898 -35.1133 179.695C3.1586 178.363 53.3368 168.247 88.6942 188.998C133.586 215.328 141.335 282.032 196.145 298.764C221.381 306.464 271.333 316.377 298.873 312.155C327.182 307.819 342.161 280.428 368.752 272.593C383.595 268.212 400.766 272.999 415.474 269.025C447.081 260.512 447.758 236.463 471.661 217.767C490.142 203.315 521.749 188.411 545.133 180.576C571.453 171.747 588.691 179.244 615.554 179.695C615.554 179.898 615.554 180.011 615.554 180.215Z" stroke="#FFD3D3" stroke-width="0.35" stroke-miterlimit="10"/>
<path d="M615.553 167.461C589.91 166.716 574.276 157.254 547.504 162.335C521.748 167.212 487.091 176.155 469.175 192.164C446.651 212.306 449.881 236.423 420.714 250.92C407.43 257.536 389.536 258.575 376.004 264.536C351.739 275.239 333.801 299.717 306.938 305.43C279.059 311.346 224.995 308.953 199.103 302.088C149.174 288.856 147.14 228.361 111.512 199.684C73.4207 169.019 10.2292 172.045 -35.1367 167.483C-35.1367 167.28 -35.1367 167.167 -35.1367 166.964C10.5003 171.774 74.2341 168.996 112.416 200.068C147.683 228.791 149.49 289.081 199.216 302.201C225.13 309.02 279.33 311.098 307.232 305.114C334.049 299.356 352.123 274.968 376.275 264.175C389.785 258.146 407.678 256.859 420.895 250.152C449.904 235.429 446.605 211.268 469.04 191.103C486.956 175.003 521.681 166.332 547.549 161.567C574.299 156.645 589.933 166.196 615.508 166.942C615.508 167.145 615.508 167.258 615.508 167.461H615.553Z" stroke="#FFD3D3" stroke-width="0.35" stroke-miterlimit="10"/>
<path d="M615.554 154.701C591.583 153.956 575.813 142.417 549.583 144.517C521.094 146.82 485.24 149.62 467.007 167.911C457.677 181.188 451.983 196.092 449.973 212.598C445.002 224.611 436.756 231.431 425.211 233.057C412.537 242.202 396.18 248.502 382.172 255.366C358.088 267.154 340.082 290.051 313.31 297.164C285.295 304.615 228.452 310.283 202.177 304.141C156.178 293.37 159.273 235.699 131.213 206.84C91.9701 166.511 16.0138 163.982 -35.1133 154.746V154.227C16.1945 163.598 92.6027 166.308 131.846 206.976C159.68 235.834 156.404 293.46 202.29 304.164C228.565 310.283 285.498 304.299 313.491 296.802C340.24 289.644 358.314 266.838 382.353 254.983C396.383 248.073 412.695 241.615 425.324 232.402C436.869 230.753 445.093 223.889 450.018 211.853C451.983 195.301 457.609 180.353 466.917 167.03C485.172 148.649 521.049 146.053 549.629 143.84C575.813 141.807 591.628 153.436 615.531 154.182V154.701H615.554Z" stroke="#FFD3D3" stroke-width="0.35" stroke-miterlimit="10"/>
<path d="M615.554 141.972C605.003 141.791 596.373 137.885 589.663 130.275C576.762 127.498 563.817 127.182 550.849 129.327C520.597 130.162 484.449 128.807 465.697 148.995C456.886 163.198 452.141 178.869 451.464 196.031C447.058 208.315 439.083 215.495 427.583 217.528C415.09 228.096 399.772 236.88 385.425 244.715C362.2 257.406 342.748 278.79 316.563 286.783C288.661 295.296 231.254 307.941 204.865 302.387C160.087 292.993 166.322 234.35 142.171 205.515C102.86 158.546 19.719 153.127 -35.1133 141.972C-35.1133 141.769 -35.1133 141.656 -35.1133 141.453C19.8319 152.585 103.063 158.072 142.352 205.199C166.413 234.057 160.155 292.812 204.956 302.183C231.366 307.693 288.729 294.822 316.631 286.286C342.793 278.27 362.268 256.931 385.493 244.241C399.952 236.338 414.931 227.441 427.651 216.963C439.173 214.931 447.126 207.773 451.531 195.489C452.164 178.305 456.886 162.611 465.697 148.385C484.471 128.13 520.62 129.62 550.894 128.807C563.862 126.685 576.807 127.001 589.708 129.756C596.395 137.411 605.003 141.317 615.576 141.475C615.576 141.679 615.576 141.791 615.576 141.995L615.554 141.972Z" stroke="#FFD3D3" stroke-width="0.35" stroke-miterlimit="10"/>
<path d="M615.553 129.212C592.26 128.241 575.293 116.408 549.582 116.995C519.218 117.673 483.68 115.573 464.634 136.031C455.778 150.099 450.988 165.657 450.243 182.728C445.747 194.99 437.749 202.103 426.227 204.045C413.846 214.409 398.686 222.742 384.611 230.397C360.663 243.426 342.702 265.171 316.178 274.858C289.406 284.636 232.631 302.271 206.875 297.439C160.877 288.791 166.141 224.39 142.599 195.193C103.22 146.305 21.0963 140.367 -35.1367 129.212V128.692C21.1189 139.87 103.153 145.854 142.554 194.764C166.073 223.961 160.922 288.61 206.943 297.236C232.653 302.046 289.406 284.252 316.111 274.429C342.657 264.652 360.482 242.771 384.476 229.719C398.528 222.064 413.711 213.8 426.046 203.458C437.568 201.516 445.566 194.403 450.062 182.164C450.83 165.093 455.642 149.557 464.499 135.512C483.544 115.076 519.06 117.199 549.402 116.521C575.135 115.934 592.17 127.699 615.53 128.692C615.53 128.896 615.53 129.008 615.53 129.212H615.553Z" stroke="#FFD3D3" stroke-width="0.35" stroke-miterlimit="10"/>
<path d="M615.553 116.445C568.764 113.554 497.597 86.2542 460.748 123.784C451.576 137.129 446.289 152.123 444.888 168.72C440.031 180.687 431.898 187.439 420.488 189.02C409.034 197.804 392.135 204.013 380.432 211.849C357.613 227.136 340.104 252.788 313.806 264.733C289.271 275.888 233.196 296.279 208.886 292.327C161.848 284.672 164.085 214.739 140.86 185.384C101.323 135.413 22.1129 128.3 -35.1367 116.445V115.925C22.1355 127.803 101.232 134.984 140.769 185C163.972 214.355 161.893 284.492 208.976 292.101C233.218 296.03 289.271 275.572 313.693 264.349C340.059 252.269 357.342 226.391 380.228 211.013C391.864 203.2 408.763 197.059 420.195 188.365C431.604 186.829 439.76 180.078 444.617 168.132C446.041 151.558 451.35 136.587 460.545 123.287C497.371 85.9155 568.764 113.035 615.553 115.925C615.553 116.129 615.553 116.242 615.553 116.445Z" stroke="#FFD3D3" stroke-width="0.35" stroke-miterlimit="10"/>
<path d="M615.553 103.716C568.922 101.232 490.91 78.0191 454.942 111.755C433.818 131.558 438.382 155.72 412.061 172.881C401.488 179.768 384.521 183.856 374.196 190.923C349.028 208.175 337.98 240.466 309.762 255.889C287.689 267.947 233.557 289.557 210.784 286.531C162.978 280.14 161.08 205.646 138.239 176.314C98.6341 125.416 23.0618 116.632 -35.1367 103.716V103.197C23.0844 116.158 98.5211 125.01 138.149 175.93C160.967 205.262 163.046 279.937 210.874 286.26C233.58 289.263 287.599 267.631 309.581 255.527C337.912 239.946 348.644 207.362 373.948 190.02C384.227 182.975 401.172 179.001 411.722 172.181C438.111 155.133 433.547 131.016 454.716 111.236C490.661 77.6578 568.99 100.713 615.576 103.174C615.576 103.377 615.576 103.49 615.576 103.694L615.553 103.716Z" stroke="#FFD3D3" stroke-width="0.35" stroke-miterlimit="10"/>
<path d="M615.53 90.9594C570.661 88.0013 483.002 70.3883 448.503 99.7434C426.43 118.531 430.926 141.947 402.753 156.308C392.722 161.434 376.93 162.947 367.215 169.157C337.822 187.967 334.998 228.003 304.182 247.445C284.436 259.91 233.693 281.768 212.41 279.577C164.13 274.587 157.691 196.435 135.324 167.283C95.7422 115.685 23.8978 105.095 -35.1367 90.9594C-35.1367 90.7562 -35.1367 90.6433 -35.1367 90.4401C23.9203 104.621 95.6293 115.279 135.234 166.944C157.578 196.073 164.22 274.361 212.501 279.284C233.715 281.452 284.323 259.593 303.956 247.106C334.862 227.483 337.37 187.131 366.966 168.276C376.681 162.089 392.406 160.667 402.414 155.631C430.678 141.405 426.159 117.966 448.277 99.224C482.799 69.9592 570.684 87.5497 615.553 90.4175C615.553 90.6207 615.553 90.7336 615.553 90.9369L615.53 90.9594Z" stroke="#FFD3D3" stroke-width="0.35" stroke-miterlimit="10"/>
<path d="M615.53 78.1968C570.955 77.1129 477.964 60.403 442.787 87.6581C420.037 105.294 423.719 128.484 394.462 140.159C384.453 144.155 370.875 142.959 360.867 148.31C326.571 166.691 329.982 215.601 297.291 238.792C279.736 251.234 233.444 272.731 213.63 271.263C165.215 267.65 154.46 186.675 132.726 157.907C93.1893 105.61 24.5981 93.4388 -35.1367 78.1968C-35.1367 77.9935 -35.1367 77.8806 -35.1367 77.6774C24.6207 92.9646 93.0989 105.181 132.636 157.523C154.347 186.269 165.26 267.334 213.676 270.902C233.444 272.347 279.511 250.873 296.997 238.431C329.756 215.15 326.187 165.833 360.641 147.52C370.649 142.191 384.159 143.501 394.168 139.549C423.471 127.965 419.833 104.774 442.584 87.1839C477.783 59.974 570.955 76.6613 615.53 77.6774C615.53 77.8806 615.53 77.9935 615.53 78.1968Z" stroke="#FFD3D3" stroke-width="0.35" stroke-miterlimit="10"/>
<path d="M615.53 65.4679C571.136 65.355 474.846 49.4581 439.059 75.4487C416.038 92.1811 418.704 115.62 388.926 125.262C378.647 128.604 366.944 125.194 356.438 130.027C318.822 147.391 323.25 203.911 289.225 229.134C273.094 241.102 233.128 262.125 214.24 261.176C166.005 258.783 151.93 175.708 130.964 147.549C91.5174 94.6424 25.2081 81.3874 -35.1367 65.4679C-35.1367 65.2647 -35.1367 65.1518 -35.1367 64.9485C25.2307 80.8906 91.4948 94.1682 130.919 147.143C151.862 175.279 166.05 258.421 214.263 260.77C233.128 261.696 272.8 240.695 288.909 228.75C322.979 203.46 318.596 146.691 356.348 129.394C366.876 124.562 378.511 128.039 388.814 124.72C418.568 115.123 415.947 91.6617 438.992 74.9745C474.801 49.0065 571.158 64.8582 615.553 64.9711C615.553 65.1744 615.553 65.2873 615.553 65.4905L615.53 65.4679Z" stroke="#FFD3D3" stroke-width="0.35" stroke-miterlimit="10"/>
<path d="M615.553 52.7023C570.978 52.7023 474.688 37.2119 438.337 62.9541C415.563 79.0768 416.738 102.696 387.503 111.593C377.156 114.755 365.34 111.39 354.586 115.116C315.252 128.71 310.417 187.917 277.477 214.088C262.882 225.694 232.315 250.104 213.924 249.201C164.83 246.83 152.856 165.11 130.693 137.448C88.1511 84.3833 28.6422 69.4799 -35.1367 52.7023C-35.1367 52.4991 -35.1367 52.3862 -35.1367 52.183C28.7552 69.0057 88.1511 83.9768 130.67 137.2C152.608 164.658 164.898 246.649 213.902 248.772C232.382 249.562 262.318 224.927 276.845 213.252C309.604 186.968 315.184 127.987 354.495 114.506C365.249 110.825 377.111 114.145 387.458 110.984C416.648 102.109 415.586 78.5123 438.337 62.4573C474.733 36.7377 570.932 52.2056 615.553 52.2056V52.7249V52.7023Z" stroke="#FFD3D3" stroke-width="0.35" stroke-miterlimit="10"/>
<path d="M615.553 39.9413C569.848 39.9413 476.834 24.7218 437.998 49.2898C415.654 63.4254 412.378 84.5385 385.086 92.6676C374.512 95.8064 361.883 93.4354 351.152 97.0709C312.631 110.145 294.286 166.078 266.023 195.546C252.716 209.411 234.145 238.269 213.54 239.669C165.937 242.898 146.553 156.346 128.931 132.568C87.0441 75.9804 31.2629 58.5931 -35.1367 39.9413V39.4219C31.3533 58.2092 86.9537 75.7094 128.795 132.433C146.259 156.12 165.915 242.785 213.517 239.353C234.212 237.863 252.445 208.891 265.706 194.914C293.812 165.31 312.451 109.377 350.971 96.258C361.702 92.5999 374.354 94.9257 384.928 91.7644C412.129 83.6804 415.631 62.7254 437.975 48.7027C476.97 24.2024 569.758 39.4219 615.553 39.4219V39.9413Z" stroke="#FFD3D3" stroke-width="0.35" stroke-miterlimit="10"/>
<path d="M615.553 27.189C567.182 27.189 480.924 12.8502 437.207 34.4827C415.315 45.3215 405.374 61.8733 380.68 68.8733C369.903 71.9217 356.642 71.4024 346.091 75.7153C307.345 91.5219 285.791 148.245 261.03 182.049C248.378 199.323 236.878 227.956 213.698 233.127C166.299 243.694 138.171 149.69 124.887 130.226C84.0167 70.3637 33.4544 49.2506 -35.1367 27.189C-35.1367 26.9858 -35.1367 26.8729 -35.1367 26.6697C33.5222 48.8667 83.8585 70.1604 124.661 130.135C137.923 149.645 166.163 243.582 213.676 232.878C236.946 227.639 248.288 198.939 260.894 181.552C285.543 147.545 307.073 90.7542 345.842 74.7895C356.371 70.454 369.678 70.883 380.454 67.8346C405.035 60.8797 415.292 44.5312 437.162 33.873C481.127 12.3986 567.001 26.6923 615.53 26.6923V27.2116L615.553 27.189Z" stroke="#FFD3D3" stroke-width="0.35" stroke-miterlimit="10"/>
<path d="M615.553 14.4561C562.505 14.4561 486.933 2.5786 436.235 19.153C414.953 26.1079 397.399 36.8338 375.394 42.8403C364.685 45.7758 350.406 47.6952 340.352 52.8662C300.499 73.4148 281.657 132.825 259.584 171.642C248.468 191.174 238.912 221.997 214.15 227.981C162.074 240.581 135.437 153.758 119.781 129.031C107.468 110.673 95.1548 92.315 82.8419 73.9567C47.2585 46.4532 7.94738 26.6272 -35.1367 14.4561C-35.1367 14.2529 -35.1367 14.14 -35.1367 13.9368C7.90219 26.1756 47.1455 46.0919 82.6159 73.6632C94.9289 92.1117 107.242 110.538 119.555 128.986C135.257 153.87 161.939 240.581 214.15 227.8C239.002 221.726 248.468 190.926 259.539 171.258C281.521 132.215 300.205 72.6922 340.104 51.9178C350.112 46.7016 364.459 44.6693 375.145 41.7564C397.06 35.7725 414.885 25.3175 436.168 18.4981C487.182 2.17214 562.28 13.9142 615.53 13.9142V14.4336L615.553 14.4561Z" stroke="#FFD3D3" stroke-width="0.35" stroke-miterlimit="10"/>
<path d="M615.553 1.6933C557.784 1.6933 492.333 -5.69064 435.264 3.88365C404.719 9.00951 362.019 13.345 334.817 30.3936C293.653 56.2035 278.381 118.662 258.77 162.492C248.739 184.937 241.013 214.586 214.625 222.76C158.708 240.08 132.32 157.185 114.833 127.649C102.452 107.236 90.0941 86.8232 77.7133 66.4101C44.3667 37.1679 6.74997 15.6031 -35.1367 1.6933V1.17395C6.70479 15.1289 44.2537 36.7614 77.5326 66.0714C89.9133 86.5748 102.294 107.056 114.652 127.559C132.252 157.321 158.572 240.012 214.647 222.512C241.103 214.247 248.717 184.666 258.725 162.13C278.245 118.12 293.382 55.5487 334.614 29.5355C361.906 12.3289 404.515 8.26434 435.241 3.29655C492.514 -5.98419 557.625 1.19653 615.553 1.19653V1.71589V1.6933Z" stroke="#FFD3D3" stroke-width="0.35" stroke-miterlimit="10"/>
<path d="M615.553 -11.0628C555.524 -11.0628 494.547 -13.75 434.586 -10.6564C399.409 -8.82733 360.324 -10.7919 330.412 10.1858C287.938 39.9474 272.913 104.574 255.721 152.694C246.864 177.51 242.255 205.33 214.918 215.83C155.703 238.591 131.326 160.145 111.354 124.671C98.8374 102.338 86.3211 80.0058 73.7822 57.6959C42.243 26.9634 5.93664 4.06635 -35.1367 -11.0403C-35.1367 -11.2435 -35.1367 -11.3564 -35.1367 -11.5596C5.93664 3.56957 42.1978 26.5343 73.6467 57.2895C86.1856 79.6897 98.7019 102.09 111.241 124.49C131.326 160.213 155.567 238.501 214.918 215.491C242.255 204.878 246.706 177.149 255.517 152.265C272.597 103.987 287.779 39.3151 330.276 9.46318C360.302 -11.6274 399.251 -9.48217 434.586 -11.1983C494.592 -14.1112 555.502 -11.5596 615.576 -11.5596V-11.0403L615.553 -11.0628Z" stroke="#FFD3D3" stroke-width="0.35" stroke-miterlimit="10"/>
<path d="M590.297 626.258H589.777C589.777 519.405 599.334 413.207 598.792 306.671C598.25 195.731 589.777 86.5977 589.777 -24.0938H590.297C590.297 86.5073 598.475 195.641 599.018 306.468C599.537 413.072 590.297 519.337 590.297 626.235V626.258Z" stroke="#FFD3D3" stroke-width="0.35" stroke-miterlimit="10"/>
<path d="M577.53 626.259H577.01C577.01 570.89 572.492 513.061 577.191 457.918C581.416 408.534 594.52 362.175 594.226 311.639C594.068 284.926 588.487 258.71 587.787 232.042C587.064 204.696 593.413 178.728 594.633 151.609C595.92 123.202 586.996 103.737 580.987 76.7758C573.734 44.2594 577.033 9.28163 577.033 -24.0703H577.553C577.553 9.30421 574.322 44.2368 581.439 76.7984C587.313 103.715 596.079 123.405 594.813 151.699C593.616 178.774 587.403 204.719 588.103 231.997C588.804 258.597 594.249 284.768 594.407 311.436C594.7 361.972 581.845 408.489 577.711 457.918C573.102 513.106 577.553 570.868 577.553 626.259H577.53Z" stroke="#FFD3D3" stroke-width="0.35" stroke-miterlimit="10"/>
<path d="M564.767 626.259H564.247C564.247 571.907 557.492 511.887 564.631 458.009C571.07 409.528 590.048 367.708 589.89 316.743C589.799 288.449 581.372 261.126 580.423 232.923C579.452 203.951 588.941 177.577 590.5 149.012C592.217 117.76 579.859 104.166 570.347 76.0307C559.796 44.7788 564.247 8.98808 564.247 -24.0703H564.767C564.767 8.98808 560.361 44.7788 570.776 76.0758C580.13 104.166 592.375 118.009 590.68 149.125C589.122 177.645 579.768 203.996 580.74 232.9C581.689 261.036 589.98 288.313 590.093 316.562C590.274 367.505 571.522 409.505 565.151 458.009C558.079 511.932 564.767 571.861 564.767 626.259Z" stroke="#FFD3D3" stroke-width="0.35" stroke-miterlimit="10"/>
<path d="M552.002 626.259H551.482C551.482 573.036 542.942 510.509 552.002 458.076C555.865 435.767 570.302 416.641 575.882 394.511C581.44 372.405 584.128 343.885 584.151 321.033C584.196 291.362 573.261 263.158 572.109 233.645C570.934 203.229 583.067 176.674 584.919 146.844C587.043 112.567 572.041 104.708 559.277 75.4436C546.173 45.3884 551.482 8.87518 551.482 -24.0703H552.002C552.002 8.87518 546.715 45.3659 559.751 75.4662C572.403 104.686 587.314 112.77 585.213 146.935C583.383 176.719 571.341 203.274 572.493 233.645C573.623 263.113 584.49 291.294 584.445 320.92C584.422 343.817 581.756 372.314 576.221 394.466C570.708 416.618 556.362 435.789 552.521 458.099C543.507 510.577 552.002 573.013 552.002 626.281V626.259Z" stroke="#FFD3D3" stroke-width="0.35" stroke-miterlimit="10"/>
<path d="M539.26 626.259H538.74C538.74 573.758 529.229 509.561 539.237 458.054C543.552 435.834 559.796 417.792 566.077 395.798C572.132 374.64 575.25 345.579 575.385 323.494C575.589 292.988 563.05 264.287 561.785 233.984C560.474 202.687 574.143 176.154 576.244 145.602C578.752 109.134 562.191 105.183 547.348 75.1726C532.889 45.9304 538.74 8.80743 538.74 -24.0703H539.26C539.26 8.83001 533.408 45.9304 547.845 75.1726C562.643 105.16 579.158 109.202 576.673 145.625C574.595 176.177 560.949 202.709 562.259 233.984C563.524 264.287 575.995 292.965 575.815 323.449C575.679 345.556 572.561 374.595 566.529 395.776C560.248 417.792 544.072 435.834 539.757 458.054C529.771 509.561 539.26 573.736 539.26 626.259Z" stroke="#FFD3D3" stroke-width="0.35" stroke-miterlimit="10"/>
<path d="M526.494 626.26H525.974C525.974 574.098 515.672 508.704 525.906 457.671C530.334 435.587 546.895 418.041 553.447 396.206C559.614 375.635 563.094 346.46 563.342 324.873C563.704 294.524 551.142 265.937 549.854 235.791C548.499 204.313 561.67 176.629 563.365 145.739C565.375 109.248 549.38 105.364 534.514 75.2186C520.1 45.9764 525.974 8.80829 525.974 -24.0469H526.494C526.494 8.80829 520.597 45.999 535.034 75.2186C549.922 105.364 565.985 109.203 563.907 145.694C562.167 176.562 548.951 204.155 550.284 235.588C551.571 265.779 564.155 294.389 563.817 324.76C563.568 346.392 560.134 375.567 553.966 396.183C547.437 418.041 530.899 435.609 526.471 457.716C516.259 508.771 526.471 574.075 526.471 626.26H526.494Z" stroke="#FFD3D3" stroke-width="0.35" stroke-miterlimit="10"/>
<path d="M513.731 626.259H513.211C513.211 574.865 500.401 506.241 511.087 456.428C515.651 435.134 532.979 418.402 540.164 397.515C546.716 378.389 551.505 350.321 552.251 329.975C553.29 300.733 541.632 272.733 540.006 243.671C538.176 211.109 548.817 180.196 549.156 147.883C549.54 112.16 535.239 105.634 521.276 75.3984C507.585 45.7272 513.211 8.80743 513.211 -24.0703H513.731C513.731 8.80743 508.105 45.7497 521.819 75.3984C535.826 105.634 550.195 112.025 549.743 147.77C549.337 179.993 538.56 210.771 540.367 243.265C541.971 272.371 553.674 300.417 552.658 329.704C551.957 350.117 547.235 378.253 540.684 397.447C533.544 418.402 516.261 435.157 511.697 456.496C501.033 506.377 513.731 574.819 513.731 626.259Z" stroke="#FFD3D3" stroke-width="0.35" stroke-miterlimit="10"/>
<path d="M500.986 626.259H500.467C500.467 596.813 501.506 567.165 500.376 537.719C499.405 512.406 489.329 479.867 495.27 454.599C499.947 434.637 518.518 418.763 526.584 399.434C533.723 382.318 540.501 356.237 541.947 337.63C544.07 310.239 533.61 282.713 531.577 255.458C528.979 220.706 535.779 186.067 534.378 151.383C533 116.744 520.326 105.95 507.742 75.7371C495.157 45.5013 500.444 8.85259 500.444 -24.0703H500.964C500.964 8.83001 495.655 45.5239 508.284 75.7145C520.913 105.928 533.655 116.541 534.966 151.225C536.276 185.819 529.317 220.3 531.87 254.939C533.881 282.262 544.409 309.81 542.331 337.291C540.907 355.988 534.22 382.16 527.103 399.366C519.083 418.786 500.58 434.683 495.88 454.712C489.984 479.957 499.924 512.451 500.873 537.764C501.958 567.187 500.964 596.858 500.964 626.304L500.986 626.259Z" stroke="#FFD3D3" stroke-width="0.35" stroke-miterlimit="10"/>
<path d="M488.221 626.258H487.701C487.701 596.88 489.238 566.983 487.453 537.628C485.917 512.383 472.497 477.947 479.094 452.588C483.861 434.275 503.923 418.943 512.892 401.578C520.664 386.517 529.701 363.055 531.938 346.165C535.259 321.055 525.86 293.664 523.646 268.599C520.303 230.98 522.584 192.931 519.421 155.311C516.597 121.869 505.143 106.153 494.118 76.075C482.821 45.2295 487.701 8.8969 487.701 -24.0938H488.221C488.221 8.8969 483.296 45.2521 494.66 76.0524C505.753 106.13 517.23 121.666 520.009 155.153C523.127 192.66 520.641 230.573 523.963 268.08C526.199 293.235 535.62 320.626 532.344 345.826C530.153 362.784 521.184 386.359 513.434 401.488C504.488 418.943 484.493 434.275 479.726 452.679C473.152 478.014 486.459 512.383 487.973 537.628C489.735 566.983 488.221 596.88 488.221 626.258Z" stroke="#FFD3D3" stroke-width="0.35" stroke-miterlimit="10"/>
<path d="M475.458 626.259H474.938C474.938 596.949 476.881 566.803 474.554 537.539C472.566 512.451 455.938 476.096 463.213 450.738C467.98 434.073 489.624 418.853 499.293 403.521C507.788 390.04 518.474 369.537 521.683 353.933C526.291 331.353 517.458 303.33 515.266 280.568C511.403 240.058 509.37 199.322 504.603 158.88C500.784 126.476 490.188 106.379 480.541 76.4371C470.443 45.0271 474.916 9.03324 474.916 -24.0703H475.436C475.436 9.03324 470.94 45.0271 481.084 76.4146C490.753 106.357 501.417 126.318 505.19 158.744C509.889 199.074 511.764 239.719 515.605 280.139C517.774 302.991 526.653 330.991 522.089 353.662C518.926 369.311 508.285 389.927 499.836 403.476C490.189 418.899 468.613 434.118 463.846 450.828C456.593 476.164 473.109 512.451 475.097 537.561C477.401 566.826 475.481 596.971 475.481 626.281L475.458 626.259Z" stroke="#FFD3D3" stroke-width="0.35" stroke-miterlimit="10"/>
<path d="M462.691 626.259H462.172C462.172 597.039 464.408 566.713 461.765 537.516C459.506 512.541 440.505 474.764 448.3 449.451C453.067 434.028 475.93 418.695 485.962 404.876C494.976 392.456 506.882 374.03 510.61 359.217C515.874 338.375 507.515 309.991 505.504 288.742C501.46 246.065 496.196 203.613 490.345 161.138C485.984 129.434 475.953 106.492 467.3 76.6404C458.06 44.8013 462.172 9.14615 462.172 -24.0703H462.691C462.691 9.14615 458.557 44.8239 467.82 76.6404C476.518 106.515 486.549 129.367 490.909 161.093C496.738 203.522 501.889 245.929 505.956 288.539C507.967 309.833 516.349 338.195 511.085 359.104C507.357 373.94 495.496 392.434 486.504 404.876C476.495 418.741 453.654 434.073 448.887 449.518C441.093 474.854 460.025 512.587 462.285 537.561C464.928 566.736 462.691 597.062 462.691 626.304V626.259Z" stroke="#FFD3D3" stroke-width="0.35" stroke-miterlimit="10"/>
<path d="M449.949 626.258H449.429C449.429 597.061 451.733 566.69 449.045 537.538C446.741 512.654 427.017 474.311 435.083 449.043C439.918 433.914 463.052 418.853 473.151 405.417C482.301 393.268 494.253 375.317 498.139 360.707C503.538 340.361 495.473 311.91 493.575 291.09C489.621 247.825 483.476 204.967 477.353 161.927C472.88 130.45 462.962 106.785 454.625 76.9556C445.656 44.9134 449.429 9.25819 449.452 -24.0938C449.655 -24.0938 449.768 -24.0938 449.971 -24.0938C449.971 9.23561 446.153 44.8682 455.122 76.8653C463.459 106.695 473.355 130.359 477.828 161.815C483.973 204.854 490.141 247.735 494.095 291.022C495.992 311.842 504.103 340.316 498.703 360.639C494.818 375.249 482.821 393.201 473.671 405.349C463.549 418.762 440.392 433.891 435.58 449.021C427.514 474.311 447.26 512.608 449.565 537.515C452.253 566.667 449.949 597.038 449.949 626.235V626.258Z" stroke="#FFD3D3" stroke-width="0.35" stroke-miterlimit="10"/>
<path d="M437.188 626.258H436.668C436.668 596.993 438.747 566.757 436.262 537.515C434.206 513.557 415.499 474.108 423.813 449.924C429.1 434.501 451.467 422.736 461.498 408.782C469.925 397.062 479.911 378.139 483.458 364.184C488.631 343.816 481.854 316.29 480.385 295.426C477.425 253.335 473.133 211.244 467.891 169.357C463.825 136.772 453.274 113.875 444.372 83.2105C434.59 49.5425 437.346 11.155 436.646 -24.0938H437.165C437.821 11.0421 435.019 49.2489 444.734 82.8267C453.59 113.446 464.118 136.388 468.208 168.905C473.494 210.86 477.9 252.996 480.927 295.155C482.418 316.019 489.264 343.591 484.068 363.958C480.498 377.959 470.399 396.814 461.927 408.556C451.896 422.465 429.484 434.433 424.22 449.834C415.928 474.085 434.68 513.466 436.759 537.492C439.267 566.712 437.165 596.97 437.165 626.235L437.188 626.258Z" stroke="#FFD3D3" stroke-width="0.35" stroke-miterlimit="10"/>
<path d="M424.421 626.258H423.901C423.901 596.903 425.618 566.915 423.585 537.583C422.026 515.16 405.082 474.131 413.848 451.775C420.128 435.743 440.959 430.143 450.809 415.082C457.858 404.31 464.523 383.536 467.369 370.801C479.434 317.013 465.856 235.293 461.089 183.063C457.948 148.65 446.584 127.198 436.553 95.1332C424.94 58.0103 426.138 14.9712 423.901 -24.0938C424.105 -24.0938 424.217 -24.0938 424.421 -24.0938C426.59 14.7905 425.302 57.6264 436.847 94.5913C446.833 126.588 458.152 148.108 461.337 182.431C466.172 234.57 480.202 316.742 468.047 370.484C465.155 383.288 458.332 403.972 451.238 414.788C441.365 429.782 420.49 435.675 414.254 451.685C405.511 474.131 422.546 515.07 424.127 537.583C426.183 566.893 424.443 596.903 424.443 626.258H424.421Z" stroke="#FFD3D3" stroke-width="0.35" stroke-miterlimit="10"/>
<path d="M411.677 626.259H411.158C411.158 596.836 412.423 567.074 411 537.674C410.005 517.171 395.298 474.131 404.515 454.08C411.677 438.544 430.723 437.573 440.596 422.783C446.018 414.653 448.865 389.182 450.604 378.908C459.89 324.036 458.015 254.103 455.53 199.796C453.858 163.238 441.251 143.502 429.842 109.789C415.834 68.3306 415.27 19.7592 411.135 -24.0703C411.338 -24.0703 411.451 -24.0703 411.655 -24.0703C415.699 19.5559 416.196 67.9241 430.09 109.179C441.432 142.825 453.993 162.628 455.733 199.096C458.331 253.336 460.703 323.743 451.282 378.569C449.497 388.911 446.47 414.292 441.003 422.466C431.107 437.212 411.971 438.476 404.877 453.989C395.659 474.131 410.48 517.103 411.497 537.674C412.943 567.074 411.655 596.836 411.655 626.259H411.677Z" stroke="#FFD3D3" stroke-width="0.35" stroke-miterlimit="10"/>
<path d="M398.917 626.259H398.397C398.397 596.791 399.143 567.232 398.397 537.764C397.923 519.316 385.587 473.951 395.121 456.338C403.661 440.576 420.809 446.38 430.343 430.325C434.591 423.212 433.054 395.979 433.935 386.856C439.29 331.104 449.569 271.807 449.863 216.19C450.066 177.712 435.72 159.377 423.046 124.151C406.598 78.4017 404.384 24.456 398.42 -24.0703C398.623 -24.0703 398.736 -24.0703 398.939 -24.0703C404.836 24.2979 407.005 78.0404 423.362 123.631C435.969 158.79 450.247 177.193 450.134 215.603C449.954 271.197 440.148 330.833 434.613 386.585C433.709 395.753 435.065 422.918 430.795 430.076C421.238 446.063 404.023 440.508 395.528 456.27C385.994 473.973 398.42 519.248 398.917 537.764C399.708 567.21 398.917 596.791 398.917 626.259Z" stroke="#FFD3D3" stroke-width="0.35" stroke-miterlimit="10"/>
<path d="M386.148 626.26H385.629C385.629 596.792 385.922 567.301 385.697 537.833C385.606 524.781 375.327 469.526 384.951 458.077C396.88 443.919 410.322 452.974 419.495 436.242C423.223 429.445 417.755 401.738 418.004 393.044C419.653 337.879 439.828 283.753 442.63 229.04C444.663 189.184 428.397 171.616 414.818 135.306C396.473 86.2155 392.971 28.1601 385.606 -24.0469C385.809 -24.0469 385.922 -24.0469 386.126 -24.0469C393.446 28.0472 396.925 85.9671 415.202 134.968C428.735 171.255 444.934 188.846 442.969 228.656C440.258 283.437 420.376 337.653 418.614 392.864C418.343 401.557 423.675 429.264 419.947 436.061C410.752 452.771 397.264 443.829 385.38 458.032C375.711 469.571 386.081 524.736 386.194 537.855C386.442 567.324 386.126 596.814 386.126 626.305L386.148 626.26Z" stroke="#FFD3D3" stroke-width="0.35" stroke-miterlimit="10"/>
<path d="M373.385 626.26H372.866C372.866 596.769 372.866 567.278 372.866 537.788C372.866 525.865 364.145 468.893 373.363 458.71C385.766 445.026 398.553 455.819 407.59 438.906C411.431 431.725 403.704 404.696 403.659 395.777C403.388 341.515 428.443 288.314 432.555 234.956C435.696 194.423 417.938 177.036 404.021 140.206C384.93 89.6478 380.75 29.7859 372.82 -24.0469C373.024 -24.0469 373.137 -24.0469 373.34 -24.0469C381.247 29.7859 385.45 89.6252 404.518 140.161C418.412 176.991 436.147 194.378 433.03 234.888C428.918 288.269 403.93 341.47 404.179 395.754C404.224 404.651 411.883 431.725 408.065 438.884C399.05 455.774 386.218 445.048 373.837 458.71C364.597 468.916 373.34 525.842 373.34 537.81C373.34 567.301 373.34 596.792 373.34 626.282L373.385 626.26Z" stroke="#FFD3D3" stroke-width="0.35" stroke-miterlimit="10"/>
<path d="M360.642 626.256H360.122C360.122 596.72 359.829 567.184 360.032 537.648C360.1 526.042 352.938 470.222 361.704 460.309C373.791 446.648 386.081 456.38 395.186 439.896C399.479 432.128 391.323 404.354 391.39 394.734C391.842 341.15 416.852 289.033 421.574 236.42C425.189 196.181 406.934 177.303 393.559 140.474C375.101 89.644 370.221 30.595 362.223 -23.2604C362.359 -23.283 362.427 -23.3055 362.562 -23.3281C370.538 30.5272 375.395 89.644 393.898 140.451C407.296 177.258 425.528 196.068 421.958 236.329C417.282 289.01 392.272 341.195 391.865 394.824C391.797 404.399 399.953 432.083 395.683 439.828C386.578 456.335 374.243 446.535 362.133 460.196C353.345 470.132 360.619 526.042 360.529 537.671C360.348 567.207 360.619 596.743 360.619 626.278L360.642 626.256Z" stroke="#FFD3D3" stroke-width="0.35" stroke-miterlimit="10"/>
<path d="M347.88 626.257H347.361C347.361 596.812 346.502 567.208 347.361 537.763C347.677 526.427 343.814 474.604 351.902 464.894C363.221 451.323 375.737 459.385 383.486 442.788C388.592 431.836 379.758 404.626 380.278 391.981C382.402 339.909 407.412 290.615 413.67 239.718C418.55 200.111 399.64 178.343 387.372 141.604C370.224 90.3454 364.102 32.8319 355.788 -20.9105C355.878 -20.9557 355.901 -20.9783 355.991 -21.0234C364.282 32.719 370.36 90.3002 387.575 141.559C399.911 178.298 418.776 199.93 413.964 239.56C407.773 290.525 382.763 339.977 380.73 392.116C380.233 404.694 389.044 431.746 383.961 442.652C376.211 459.294 363.627 451.12 352.286 464.668C344.152 474.378 348.196 526.382 347.88 537.74C347.067 567.186 347.88 596.789 347.88 626.257Z" stroke="#FFD3D3" stroke-width="0.35" stroke-miterlimit="10"/>
<path d="M335.114 626.257H334.594C334.594 597.06 332.787 567.186 334.752 538.034C335.498 526.969 335.814 480.611 343.112 471.194C353.708 457.533 364.394 462.591 372.121 446.807C378.311 434.162 368.822 403.023 369.726 388.323C372.776 338.058 398.87 292.557 407.501 244.144C414.391 205.395 394.533 179.856 383.53 143.32C368.009 91.7003 360.395 35.8578 351.629 -17.5911C351.697 -17.6362 351.72 -17.6814 351.765 -17.7266C360.508 35.7449 368.054 91.6552 383.643 143.252C394.691 179.788 414.504 205.169 407.704 243.963C399.187 292.489 373.137 338.171 370.133 388.503C369.251 403.113 378.718 434.117 372.573 446.672C364.823 462.501 354.069 457.307 343.451 470.969C336.108 480.407 335.972 527.014 335.25 538.079C333.352 567.253 335.091 597.128 335.091 626.325L335.114 626.257Z" stroke="#FFD3D3" stroke-width="0.35" stroke-miterlimit="10"/>
<path d="M322.348 626.261H321.829C321.829 597.606 318.779 566.918 322.19 538.331C323.478 527.582 328.019 486.982 334.594 477.837C344.354 464.266 353.617 466.117 360.891 451.011C368.189 435.859 357.841 401.784 359.355 384.374C363.602 335.374 390.058 294.683 401.739 248.709C411.273 211.179 389.991 181.124 380.253 145.04C366.291 93.2393 357.299 38.8646 348.036 -14.2005C348.104 -14.2456 348.127 -14.2908 348.194 -14.3359C357.412 38.7517 366.359 93.1716 380.389 144.972C390.171 181.079 411.386 210.931 401.965 248.528C390.397 294.593 363.964 335.487 359.762 384.533C358.271 401.829 368.573 435.814 361.321 450.853C354.023 465.982 344.715 463.995 334.932 477.566C328.335 486.734 323.93 527.56 322.687 538.308C319.344 566.918 322.348 597.56 322.348 626.238V626.261Z" stroke="#FFD3D3" stroke-width="0.35" stroke-miterlimit="10"/>
<path d="M309.604 626.258H309.084C309.084 582.857 303.007 522.995 325.487 483.569C333.462 469.569 342.747 469.366 349.435 454.665C357.546 436.804 346.498 401.126 348.644 381.007C351.084 358.245 359.782 336.409 366.424 314.574C373.406 291.586 387.481 274.606 395.027 252.747C407.362 216.979 384.318 181.776 375.687 146.549C362.968 94.6812 352.846 41.4581 343.199 -11.223C343.29 -11.2682 343.357 -11.2908 343.448 -11.3359C353.095 41.3452 363.171 94.6361 375.936 146.482C384.612 181.753 407.588 216.753 395.366 252.589C387.887 274.515 373.79 291.699 366.831 314.709C360.234 336.522 351.559 358.335 349.141 381.097C347.017 401.126 358.043 436.759 349.954 454.507C343.244 469.23 333.936 469.343 325.939 483.343C303.504 522.679 309.649 582.97 309.649 626.235L309.604 626.258Z" stroke="#FFD3D3" stroke-width="0.35" stroke-miterlimit="10"/>
<path d="M296.841 626.259H296.321C296.321 580.307 291.915 528.01 314.982 487.071C322.709 473.341 331.249 471.287 337.439 456.857C345.957 437.054 334.48 400.879 337.078 378.886C339.812 355.853 348.962 333.769 356.101 311.798C363.398 289.353 377.157 276.052 385.923 255.391C400.315 221.452 375.757 181.619 367.849 147.387C355.875 95.541 345.031 43.0179 335.135 -9.39234C335.293 -9.39234 335.384 -9.41492 335.542 -9.4375C345.415 42.9953 356.237 95.5184 368.233 147.387C376.163 181.664 400.654 221.339 386.33 255.346C377.609 276.03 363.828 289.443 356.53 311.888C349.391 333.859 340.264 355.944 337.53 378.976C334.932 400.925 346.409 437.099 337.891 456.857C331.678 471.287 323.138 473.319 315.389 487.048C292.345 527.965 296.795 580.443 296.795 626.327L296.841 626.259Z" stroke="#FFD3D3" stroke-width="0.35" stroke-miterlimit="10"/>
<path d="M284.075 626.257H283.555C283.555 579.041 279.895 529.656 302.488 487.565C309.559 474.423 318.325 469.998 324.131 456.246C332.852 435.584 321.985 400.99 324.425 378.522C326.933 355.558 335.834 333.767 343.403 311.999C351.084 289.915 365.137 276.999 374.106 256.744C388.769 223.595 364.595 182.52 356.461 149.123C343.877 97.5487 332.784 45.274 322.64 -6.88785C322.866 -7.02333 322.979 -7.09108 323.205 -7.22656C333.327 44.9578 344.397 97.2551 356.913 148.875C365.024 182.34 389.266 223.437 374.581 256.631C365.611 276.931 351.604 289.802 343.945 311.931C336.399 333.722 327.453 355.558 324.945 378.545C322.482 400.99 333.44 435.788 324.741 456.381C318.913 470.178 310.124 474.423 303.007 487.588C280.324 529.566 284.052 579.153 284.052 626.28L284.075 626.257Z" stroke="#FFD3D3" stroke-width="0.35" stroke-miterlimit="10"/>
<path d="M271.332 626.264H270.812C270.812 573.719 272.507 530.567 289.79 482.266C296.297 464.066 304.295 463.072 308.904 441.756C313.467 420.688 308.158 399.53 310.575 378.507C313.151 356.152 321.736 333.729 331.564 313.655C340.353 295.703 361.499 275.696 366.786 258.083C375.665 228.502 355.557 192.938 347.673 165.434C332.761 113.475 319.793 61.1556 307.593 8.45182C307.842 8.11311 307.977 7.93246 308.226 7.59375C320.335 60.3878 333.236 112.821 348.079 164.87C355.941 192.463 376.094 228.119 367.215 257.767C361.928 275.38 340.872 295.409 332.106 313.406C322.301 333.526 313.693 356.084 311.118 378.485C308.7 399.552 314.145 420.914 309.581 442.027C304.927 463.682 296.997 463.931 290.355 482.289C272.914 530.499 271.31 573.741 271.31 626.219L271.332 626.264Z" stroke="#FFD3D3" stroke-width="0.35" stroke-miterlimit="10"/>
<path d="M258.566 626.264H258.047C258.047 573.041 261.368 529.911 275.375 480.166C285.181 445.323 292.026 414.229 297.132 378.529C300.114 357.597 307.773 338.922 318.234 320.406C328.016 303.086 351.196 284.051 356.664 266.573C365.158 239.341 346.497 206.576 337.98 181.917C321.035 132.827 306.056 83.9842 291.574 34.0805C291.823 33.6063 291.958 33.3804 292.229 32.9062C306.621 82.9455 321.51 131.946 338.386 181.172C346.881 205.966 365.588 238.866 357.093 266.189C351.648 283.689 328.536 302.77 318.821 320.112C308.383 338.696 300.702 357.529 297.742 378.529C292.681 414.387 286.084 445.301 276.031 480.256C261.752 529.889 258.634 573.131 258.634 626.264H258.566Z" stroke="#FFD3D3" stroke-width="0.35" stroke-miterlimit="10"/>
<path d="M245.805 626.258H245.285C245.285 539.321 264.263 461.801 283.918 378.297C287.827 361.678 292.549 350.094 301.089 335.236C311.188 317.645 336.311 298.361 344.218 281.403C357.977 251.935 334.797 214.292 323.139 188.934C304.455 148.311 291.171 107.078 276.079 64.9199C276.327 64.4006 276.44 64.1522 276.666 63.6328C291.69 105.904 304.93 147.295 323.523 188.053C335.159 213.547 358.406 251.438 344.625 280.996C336.695 298.022 311.73 317.284 301.654 334.942C293.136 349.845 287.556 361.158 284.483 378.275C278.745 410.181 266.748 439.853 261.574 472.008C253.17 524.418 245.805 571.793 245.805 626.235V626.258Z" stroke="#FFD3D3" stroke-width="0.35" stroke-miterlimit="10"/>
<path d="M233.039 626.264H232.519C232.519 595.779 228.972 560.034 234.327 529.753C237.67 510.762 245.465 495.024 246.323 474.791C247.927 436.923 258.342 412.739 270.068 378.551C275.49 362.745 278.043 352.764 288.707 338.606C298.896 325.08 323.522 309.612 330.39 295.296C345.211 264.315 331.881 242.073 315.999 213.553C294.604 175.166 279.647 136.801 262.612 96.0874C262.816 95.6132 262.906 95.3648 263.11 94.8906C280.122 135.739 295.101 174.262 316.405 212.808C332.243 241.486 345.663 263.908 330.842 294.98C323.997 309.296 299.438 324.786 289.294 338.38C278.676 352.606 276.032 362.677 270.655 378.551C259.088 412.649 248.65 437.329 246.956 474.972C246.029 495.114 238.258 510.853 234.891 529.776C229.537 560.034 233.084 595.802 233.084 626.264H233.039Z" stroke="#FFD3D3" stroke-width="0.35" stroke-miterlimit="10"/>
<path d="M220.297 626.262H219.778C219.778 595.259 216.547 559.874 221.585 529.052C224.952 508.48 232.972 492.245 232.543 470.409C232.159 450.809 224.161 431.322 234.734 412.692C244.833 394.854 248.312 395.373 256.807 378.528C263.607 365.024 265.099 356.398 275.31 343.234C286.087 329.324 312.249 316.656 319.773 301.798C334.503 272.714 323.139 254.717 306.307 229.268C283.331 194.493 269.866 160.69 252.582 122.551C252.718 122.19 252.763 122.009 252.899 121.625C270.205 159.854 283.783 193.861 306.714 228.749C323.523 254.31 334.955 272.443 320.225 301.595C312.724 316.453 286.629 329.166 275.875 343.098C265.686 356.308 264.15 365.002 257.372 378.528C249.013 395.215 245.307 395.237 235.412 412.873C224.952 431.525 232.791 450.967 233.13 470.567C233.514 492.335 225.494 508.548 222.15 529.052C217.112 559.852 220.343 595.236 220.343 626.217L220.297 626.262Z" stroke="#FFD3D3" stroke-width="0.35" stroke-miterlimit="10"/>
<path d="M207.533 626.256H207.013C207.013 594.237 203.127 556.12 209.815 524.439C213.565 506.736 222.015 490.523 221.179 471.758C219.733 438.542 206.787 432.896 226.827 402.593C233.266 392.838 238.327 388.593 243.93 377.867C252.379 361.654 249.216 360.886 263.111 344.741C277.096 328.505 300.253 316.921 309.358 298.202C320.564 275.169 311.662 259.814 297.926 240.372C274.678 207.449 262.41 178.613 247.025 140.881C247.115 140.519 247.16 140.361 247.251 140C262.659 176.468 272.487 205.078 295.87 237.03C312.927 260.333 322.823 276.072 308.386 303.96C300.592 319.021 273.774 331.124 262.591 344.808C251.973 357.792 251.34 365.222 244.336 378.499C233.673 398.754 235.118 388.209 221.111 410.428C209.521 428.809 219.078 446.49 220.162 465.955C221.427 489.01 212.82 506.307 209.453 528.165C204.596 559.553 207.533 594.688 207.533 626.279V626.256Z" stroke="#FFD3D3" stroke-width="0.35" stroke-miterlimit="10"/>
<path d="M194.77 626.255H194.25C194.25 569.532 206.721 514.006 206.269 458.389C205.976 422.418 210.11 401.53 228.997 372.017C235.097 362.465 239.345 356.391 245.829 347.81C257.713 332.117 279.266 319.336 289.387 303.191C303.214 281.106 297.114 270.651 285.976 249.019C270.342 218.648 254.256 194.193 242.372 160.66C242.44 160.367 242.463 160.231 242.53 159.938C254.572 193.651 270.794 218.241 286.586 248.771C297.815 270.471 303.96 280.971 290.088 303.191C279.899 319.494 258.277 332.071 246.326 347.968C239.842 356.617 235.73 362.849 229.653 372.401C226.783 376.894 214.38 396.743 211.917 402.524C202.609 424.337 206.586 436.237 206.789 458.615C207.286 514.141 194.77 569.6 194.77 626.232V626.255Z" stroke="#FFD3D3" stroke-width="0.35" stroke-miterlimit="10"/>
<path d="M182.027 626.26H181.508C181.508 569.875 191.9 515.839 193.55 460.471C194.634 423.98 191.155 389.996 212.979 357.886C220.345 347.047 225.134 347.16 234.442 337.563C242.417 329.344 271.178 310.647 275.29 300.982C291.895 261.985 246.281 216.214 238.509 176.697C238.577 176.472 238.599 176.359 238.667 176.133C246.665 215.807 292.709 261.759 276.103 300.96C271.946 310.783 243.05 329.502 235.007 337.902C225.744 347.544 220.977 347.725 213.68 358.541C191.878 390.809 195.109 424.003 194.047 460.765C192.42 516.043 182.05 570.011 182.05 626.305L182.027 626.26Z" stroke="#FFD3D3" stroke-width="0.35" stroke-miterlimit="10"/>
<path d="M169.262 626.256H168.742C168.742 565.13 181.191 506.081 182.049 445.903C182.411 420.544 174.887 362.534 193.504 340.721C202.27 330.469 214.244 336.566 222.535 331.011C226.692 324.192 230.849 317.35 234.984 310.53C240.316 308.272 245.647 306.037 250.957 303.779C272.917 270.585 235.774 225.965 234.419 189.023C234.487 188.842 234.532 188.774 234.6 188.594C236.136 225.739 273.753 270.359 251.77 303.801C246.393 306.127 241.016 308.453 235.639 310.779C231.437 317.643 227.257 324.508 223.055 331.35C214.763 337.018 202.925 331.192 194.227 341.466C175.52 363.528 182.817 420.59 182.478 446.196C181.665 506.261 169.217 565.243 169.217 626.256H169.262Z" stroke="#FFD3D3" stroke-width="0.35" stroke-miterlimit="10"/>
<path d="M156.496 626.26H155.977C155.977 562.65 167.589 501.524 169.622 438.636C170.232 419.645 159.953 336.841 175.09 323.022C185.641 313.402 200.303 326.522 209.182 322.909C204.325 324.873 233.469 298.996 230.916 303.083C250.82 271.379 227.301 233.647 229.312 197.856C229.403 197.743 229.448 197.675 229.561 197.562C227.64 233.466 251.611 271.221 231.73 303.105C234.192 299.154 205.025 325.144 209.747 323.225C200.868 326.883 186.341 314.057 175.858 323.699C160.54 337.79 170.82 419.758 170.21 438.929C168.222 501.704 156.541 562.74 156.541 626.26H156.496Z" stroke="#FFD3D3" stroke-width="0.35" stroke-miterlimit="10"/>
<path d="M143.731 626.264H143.211C143.211 563.512 150.915 503.289 154.891 440.898C156.45 416.307 146.622 324.065 161.985 310.81C171.678 302.432 185.775 311.216 195.648 309.929C191.875 310.426 215.575 298.255 213.587 300.626C232.768 277.819 219.122 234.644 222.149 203.392C222.285 203.325 222.353 203.302 222.488 203.234C219.438 234.554 233.446 277.616 214.31 300.626C216.162 298.413 192.621 310.652 196.191 310.155C186.227 311.532 172.288 302.861 162.618 311.261C147.006 324.81 157.151 416.511 155.592 441.214C151.683 503.515 143.708 563.602 143.708 626.264H143.731Z" stroke="#FFD3D3" stroke-width="0.35" stroke-miterlimit="10"/>
<path d="M130.988 626.261H130.469C130.469 578.187 131.079 530.361 132.931 482.331C134.671 436.943 148.001 388.485 144.702 343.843C143.64 331.92 141.584 320.178 138.557 308.594C148.227 295.994 157.828 294.842 167.34 305.184C176.106 315.639 182.725 314.307 187.199 301.187C191.988 297.642 196.778 298.003 201.568 302.294C215.914 272.487 210.853 237.622 212.096 205.648C212.277 205.648 212.39 205.648 212.57 205.625C211.237 237.6 216.501 272.442 202.155 302.271C197.343 298.049 192.531 297.71 187.741 301.255C183.2 314.307 176.558 315.639 167.814 305.252C158.303 294.955 148.746 296.129 139.167 308.774C142.194 320.336 144.228 332.055 145.267 343.955C148.588 388.598 135.62 437.237 133.699 482.557C131.666 530.519 130.988 578.232 130.988 626.261Z" stroke="#FFD3D3" stroke-width="0.35" stroke-miterlimit="10"/>
<path d="M118.223 626.259H117.703C117.703 577.529 117.974 528.845 118.901 480.115C119.759 434.389 133.586 387.127 130.671 342.35C129.519 330.449 127.553 318.685 124.775 307.033C133.382 294.478 142.555 292.694 152.292 301.681C161.329 310.872 167.61 308.907 171.089 295.788C177.709 293.891 183.854 295.11 189.525 299.423C200.867 270.407 199.014 238.139 199.624 207.564C199.827 207.497 199.918 207.474 200.121 207.406C199.534 238.139 201.499 270.61 189.954 299.739C184.396 295.426 178.364 294.275 171.903 296.285C168.333 309.404 162.052 311.301 153.038 301.998C143.323 292.897 134.105 294.614 125.385 307.146C128.163 318.775 130.152 330.54 131.304 342.44C134.196 387.173 120.279 434.367 119.42 480.093C118.516 528.822 118.245 577.507 118.245 626.259H118.223Z" stroke="#FFD3D3" stroke-width="0.35" stroke-miterlimit="10"/>
<path d="M105.457 626.253H104.938C104.938 578.111 105.209 530.036 106.18 481.894C107.129 434.496 116.957 385.089 113.59 338.121C112.551 325.928 110.789 313.847 108.326 301.856C113.206 288.714 120.865 284.559 131.326 289.392C141.334 294.518 146.711 290.295 147.457 276.724C158.64 278.327 169.213 281.85 179.154 287.314C185.683 262.95 185.729 236.981 186.926 211.917C187.129 211.872 187.242 211.826 187.446 211.781C186.271 237.117 186.248 263.379 179.538 287.969C169.823 282.572 159.476 279.163 148.519 277.717C147.638 291.289 142.215 295.398 132.252 290.047C121.837 284.988 114.11 289.03 109.049 302.172C111.535 314.14 113.274 326.199 114.336 338.37C117.657 385.225 107.649 434.519 106.7 481.803C105.728 529.968 105.457 578.088 105.457 626.276V626.253Z" stroke="#FFD3D3" stroke-width="0.35" stroke-miterlimit="10"/>
<path d="M92.6922 626.256H92.1726C92.1726 540.833 96.1263 455.274 95.4485 369.896C95.3129 353.141 85.1011 308.656 89.8907 294.001C96.6685 273.25 121.317 272.821 119.329 249.133C136.59 254.507 153.399 261.056 169.756 268.779C172.489 249.878 169.914 231.023 172.986 212.281C173.235 212.349 173.348 212.372 173.596 212.439C170.569 231.452 172.964 250.511 170.117 269.637C154.054 262.004 137.516 255.591 120.504 250.375C122.379 274.13 97.6174 273.633 90.6363 294.385C85.8466 308.634 96.0585 353.592 96.1715 370.054C96.6685 455.409 92.6696 540.901 92.6696 626.324L92.6922 626.256Z" stroke="#FFD3D3" stroke-width="0.35" stroke-miterlimit="10"/>
<path d="M79.9528 626.257H79.4332C79.4332 539.817 80.8791 453.717 77.2417 367.345C76.2024 342.732 68.2046 309.538 70.8932 285.331C73.4913 261.915 86.5272 242.676 89.9161 218.876C113.797 227.682 137.451 237.031 160.902 246.921C160.992 244.234 161.828 183.514 156.655 201.827C156.948 202.121 157.084 202.256 157.378 202.55C162.077 185.14 161.377 244.866 161.264 247.824C138.106 238.002 114.7 228.766 91.0909 220.072C92.1754 245.295 74.6887 261.734 71.6613 285.67C68.6565 309.312 77.0157 343.319 77.9872 367.458C81.4439 453.784 79.9754 539.908 79.9754 626.28L79.9528 626.257Z" stroke="#FFD3D3" stroke-width="0.35" stroke-miterlimit="10"/>
<path d="M67.1883 626.26H66.6687C66.6687 521.485 65.4713 418.832 56.1179 314.396C53.4972 285.153 54.2653 265.802 58.219 236.65C56.4116 219.579 61.0205 204.562 72.0231 191.646C95.9939 211.788 122.902 221.024 152.792 219.308C149.629 202.575 146.872 185.775 144.455 168.93C141.382 169.81 138.762 171.436 136.57 173.807C136.932 174.439 137.112 174.756 137.474 175.365C139.53 172.904 142.038 171.12 144.997 170.014C147.347 186.791 150.058 203.524 153.153 220.188C123.466 221.837 96.7394 212.624 72.972 192.572C62.1276 205.42 57.5187 220.301 59.1227 237.214C54.9657 266.366 54.1976 285.311 56.8409 314.599C66.2394 418.922 67.1657 521.598 67.1657 626.26H67.1883Z" stroke="#FFD3D3" stroke-width="0.35" stroke-miterlimit="10"/>
<path d="M54.4219 626.26H53.9023C53.9023 536.907 52.976 450.31 43.1934 361.296C36.3026 298.544 35.2634 236.108 40.6856 173.197C73.3545 182.546 105.21 194.197 136.207 208.152C144.34 190.743 140.387 167.349 132.886 150.774C125.001 133.365 123.465 137.452 111.672 121.352C112.123 122.435 112.349 122.955 112.779 124.016C137.54 137.632 148.543 183.494 136.591 208.762C105.73 194.762 74.0097 183.065 41.4538 173.671C36.0315 236.537 36.9352 298.634 43.7808 361.341C53.4956 450.332 54.3993 536.93 54.3993 626.26H54.4219Z" stroke="#FFD3D3" stroke-width="0.35" stroke-miterlimit="10"/>
<path d="M41.6786 626.259H41.159C41.159 520.287 32.6416 418.311 25.9316 312.723C23.8983 280.659 23.3786 248.707 23.3786 216.597C23.3786 192.209 16.5105 182.093 37.386 173.919C51.7775 170.283 65.3557 173.128 78.0979 182.454C95.3361 193.858 113.568 195.777 132.795 188.235C129.112 167.122 126.198 143.954 119.442 123.902C112.461 103.218 101.007 89.4663 90.7724 68.6016C90.9079 68.8274 90.9757 68.9403 91.1113 69.1887C101.413 90.0308 112.891 103.737 119.894 124.399C126.695 144.428 129.654 167.596 133.337 188.664C114.065 196.138 95.8105 194.106 78.595 182.635C65.8527 173.241 52.2746 170.351 37.8379 173.896C16.9623 182.003 23.8305 192.119 23.8305 216.506C23.8305 248.616 24.3501 280.568 26.3834 312.61C33.116 418.244 41.656 520.242 41.656 626.259H41.6786Z" stroke="#FFD3D3" stroke-width="0.35" stroke-miterlimit="10"/>
<path d="M28.9143 626.259H28.3947C28.3947 504.096 14.6358 383.966 12.5799 262.187C12.2636 243.061 5.48579 210.748 12.5799 194.128C8.15171 177.148 16.8951 170.215 38.7647 173.377C54.5795 177.373 70.4169 181.37 86.2318 185.367C143.436 181.099 88.717 80.8854 77.1044 51.7109C77.3981 52.0045 77.5336 52.1626 77.8273 52.4787C89.5303 81.5628 144.656 181.754 87.1129 185.638C71.1851 181.528 55.2573 177.396 39.3295 173.286C17.3469 169.922 8.58097 176.786 13.0091 193.835C5.89245 210.387 12.6928 242.79 13.0091 261.894C15.0876 383.785 28.9369 503.983 28.9369 626.259H28.9143Z" stroke="#FFD3D3" stroke-width="0.35" stroke-miterlimit="10"/>
<path d="M16.1511 626.259H15.6314C15.6314 507.055 5.05809 389.296 3.36364 270.362C3.06994 250.017 -0.318956 226.058 3.29586 205.894C13.2818 149.916 31.9885 201.152 70.2829 178.503C105.211 157.842 63.347 59.4341 55.9366 31.75C56.3207 32.0887 56.5014 32.2468 56.8855 32.5855C64.4089 60.2245 106.657 158.225 71.4352 178.842C33.0277 201.31 13.7788 149.351 3.65734 205.487C0.0199328 225.629 3.43142 249.633 3.72512 269.956C5.44216 389.025 16.1511 506.897 16.1511 626.259Z" stroke="#FFD3D3" stroke-width="0.35" stroke-miterlimit="10"/>
<path d="M3.38387 626.262H2.86424C2.86424 510.874 -4.20725 396.209 -5.31429 280.956C-5.51762 260.136 -12.6343 224.91 -5.31429 206.62C-3.16799 199.484 -1.02169 192.371 1.10201 185.258C16.1035 180.652 30.5176 174.645 44.3217 167.193C65.5587 137.206 35.3298 42.3212 30.6531 11.4531C31.0824 11.7693 31.2857 11.9273 31.715 12.2435C36.4594 42.818 67.0272 137.816 45.6546 167.532C31.5568 174.781 16.8717 180.584 1.62164 184.942C-0.569841 192.032 -2.76132 199.1 -4.9754 206.191C-12.3858 224.278 -5.17873 259.82 -4.9754 280.527C-3.82317 395.938 3.38387 510.716 3.38387 626.24V626.262Z" stroke="#FFD3D3" stroke-width="0.35" stroke-miterlimit="10"/>
<path d="M-9.35574 626.263H-9.87537C-9.87537 514.329 -13.6032 402.622 -14.055 290.734C-14.1454 267.362 -16.2465 242.907 -14.1002 219.649C-11.728 194.065 -0.25092 185.01 9.03464 163.107C27.4702 119.526 7.72427 39.5215 4.76464 -6.45312C5.17131 -6.20474 5.37464 -6.06925 5.7813 -5.82086C8.80871 39.5215 29.0517 120.497 10.1869 163.287C0.539822 185.168 -11.2083 193.433 -13.7161 219.243C-15.9754 242.456 -13.7613 266.979 -13.6709 290.327C-13.1965 402.351 -9.33315 514.149 -9.33315 626.218L-9.35574 626.263Z" stroke="#FFD3D3" stroke-width="0.35" stroke-miterlimit="10"/>
</g>
</svg>
