<svg width="1003" height="780" viewBox="0 0 1003 780" fill="none" xmlns="http://www.w3.org/2000/svg">
<path d="M805.018 477.261L884.794 537.709L805.952 562.765L805.018 477.261Z" stroke="#EEB26C" stroke-opacity="0.4" stroke-width="0.68" stroke-linecap="round" stroke-linejoin="round"/>
<path d="M516.136 494.451L620.695 405.797L640.137 569.932" stroke="#EEB26C" stroke-opacity="0.4" stroke-width="0.68" stroke-linecap="round" stroke-linejoin="round"/>
<path d="M640.136 569.926L538.162 426.236" stroke="#EEB26C" stroke-opacity="0.4" stroke-width="0.68" stroke-linecap="round" stroke-linejoin="round"/>
<path d="M805.017 477.265L701.962 449.943L640.137 569.929L826.047 362.375L805.017 477.265Z" stroke="#EEB26C" stroke-opacity="0.4" stroke-width="0.68" stroke-linecap="round" stroke-linejoin="round"/>
<path d="M620.692 405.797L826.044 362.378L701.96 449.946L805.948 562.773L620.692 405.797Z" stroke="#EEB26C" stroke-opacity="0.4" stroke-width="0.68" stroke-linecap="round" stroke-linejoin="round"/>
<path d="M826.048 362.374L1002.53 502.326L884.793 537.712L826.048 362.374Z" stroke="#EEB26C" stroke-opacity="0.4" stroke-width="0.68" stroke-linecap="round" stroke-linejoin="round"/>
<path d="M229.125 220.324L22.3316 342.014" stroke="#EEB26C" stroke-opacity="0.4" stroke-width="0.68" stroke-linecap="round" stroke-linejoin="round"/>
<path d="M229.936 220.191L157.598 225.898L86.1186 248.883L21.9106 342.343" stroke="#EEB26C" stroke-opacity="0.4" stroke-width="0.68" stroke-linecap="round" stroke-linejoin="round"/>
<path d="M379.592 286.615L475.356 394.096" stroke="#EEB26C" stroke-opacity="0.4" stroke-width="0.68" stroke-linecap="round" stroke-linejoin="round"/>
<path d="M200.505 394.362L379.595 286.614L350.096 522.03L458.55 542.815L640.136 569.916L515.574 494.914" stroke="#EEB26C" stroke-opacity="0.4" stroke-width="0.68" stroke-linecap="round" stroke-linejoin="round"/>
<path d="M475.357 394.101L350.094 522.036L379.594 286.619L229.111 220.331L88.6781 292.779L158.253 366.741" stroke="#EEB26C" stroke-opacity="0.4" stroke-width="0.68" stroke-linecap="round" stroke-linejoin="round"/>
<path d="M538.164 426.237C536.944 429.547 458.552 542.826 458.552 542.826L475.36 394.106L271.646 464.618" stroke="#EEB26C" stroke-opacity="0.4" stroke-width="0.68" stroke-linecap="round" stroke-linejoin="round"/>
<path d="M475.361 394.103L516.137 494.443L538.165 426.233L475.361 394.103ZM475.361 394.103L350.098 522.038L229.923 220.198L271.647 464.615" stroke="#EEB26C" stroke-opacity="0.4" stroke-width="0.68" stroke-linecap="round" stroke-linejoin="round"/>
<path d="M200.522 394.364L229.938 220.191L157.863 367.032" stroke="#EEB26C" stroke-opacity="0.4" stroke-width="0.68" stroke-linecap="round" stroke-linejoin="round"/>
<path d="M200.484 394.485L271.664 464.609L350.115 522.033" stroke="#EEB26C" stroke-opacity="0.4" stroke-width="0.68" stroke-linecap="round" stroke-linejoin="round"/>
<path d="M229.094 216.526C226.807 216.139 224.637 217.712 224.274 219.992C223.887 222.279 225.461 224.448 227.74 224.811C230.027 225.197 232.197 223.624 232.56 221.345C232.947 219.058 231.374 216.888 229.094 216.526Z" fill="#EEB26C" fill-opacity="0.5"/>
<path d="M229.016 217.02L229.016 217.02L229.011 217.019C226.999 216.679 225.087 218.064 224.768 220.07L224.768 220.07L224.767 220.075C224.427 222.086 225.812 223.998 227.819 224.317L227.819 224.317L227.823 224.318C229.835 224.658 231.747 223.273 232.066 221.266L232.066 221.266L232.067 221.262C232.407 219.25 231.022 217.339 229.016 217.02Z" stroke="#EEB26C" stroke-opacity="0.4"/>
<path d="M352.291 513.659C347.612 512.894 343.177 516.072 342.419 520.774C341.653 525.452 344.831 529.887 349.534 530.644C354.213 531.41 358.649 528.231 359.406 523.529C360.172 518.851 356.994 514.416 352.291 513.659Z" fill="#EEB26C" fill-opacity="0.5"/>
<path d="M352.212 514.153L352.21 514.152C347.804 513.432 343.626 516.425 342.913 520.854L342.912 520.855C342.191 525.261 345.185 529.438 349.614 530.151L349.615 530.151C354.021 530.872 358.199 527.878 358.913 523.45L358.913 523.448C359.634 519.043 356.641 514.866 352.212 514.153Z" stroke="#EEB26C" stroke-opacity="0.4"/>
<path d="M476.756 385.616C472.077 384.851 467.642 388.029 466.884 392.731C466.118 397.409 469.296 401.844 473.999 402.601C478.678 403.367 483.113 400.188 483.871 395.486C484.637 390.808 481.459 386.373 476.756 385.616Z" fill="#EEB26C" fill-opacity="0.5"/>
<path d="M476.676 386.11L476.675 386.109C472.269 385.389 468.091 388.382 467.377 392.811L467.377 392.812C466.656 397.218 469.65 401.395 474.078 402.108L474.08 402.108C478.486 402.829 482.664 399.835 483.378 395.407L483.378 395.405C484.099 391 481.105 386.823 476.676 386.11Z" stroke="#EEB26C" stroke-opacity="0.4"/>
<path d="M701.744 439.96C697.066 439.194 692.63 442.373 691.872 447.075C691.106 451.753 694.285 456.188 698.987 456.945C703.666 457.71 708.102 454.532 708.859 449.83C709.617 445.128 706.447 440.717 701.744 439.96Z" fill="#EEB26C" fill-opacity="0.5"/>
<path d="M701.665 440.453L701.664 440.453C697.257 439.732 693.079 442.726 692.366 447.154L692.366 447.156C691.644 451.562 694.638 455.738 699.067 456.452L699.068 456.452C703.474 457.172 707.652 454.179 708.366 449.75C709.08 445.319 706.093 441.166 701.665 440.453Z" stroke="#EEB26C" stroke-opacity="0.4"/>
<path d="M641.19 560.483C636.511 559.718 632.075 562.896 631.317 567.598C630.552 572.277 633.73 576.711 638.433 577.469C643.135 578.226 647.547 575.056 648.305 570.353C649.063 565.651 645.892 561.24 641.19 560.483Z" fill="#EEB26C" fill-opacity="0.5"/>
<path d="M641.11 560.977L641.109 560.977C636.702 560.256 632.525 563.25 631.811 567.678L631.811 567.679C631.09 572.085 634.083 576.262 638.512 576.975C642.944 577.689 647.098 574.702 647.811 570.274C648.525 565.843 645.539 561.69 641.11 560.977Z" stroke="#EEB26C" stroke-opacity="0.4"/>
<path d="M827.432 353.858C822.753 353.093 818.317 356.271 817.56 360.973C816.794 365.652 819.972 370.086 824.675 370.844C829.354 371.609 833.789 368.431 834.547 363.728C835.305 359.026 832.134 354.615 827.432 353.858Z" fill="#EEB26C" fill-opacity="0.5"/>
<path d="M827.352 354.352L827.351 354.352C822.945 353.631 818.767 356.625 818.053 361.053L818.053 361.054C817.332 365.46 820.325 369.637 824.754 370.35L824.755 370.35C829.162 371.071 833.34 368.077 834.053 363.649C834.767 359.218 831.781 355.065 827.352 354.352Z" stroke="#EEB26C" stroke-opacity="0.4"/>
<path d="M273.289 458.6C270.13 458.077 267.144 460.241 266.62 463.4C266.096 466.559 268.26 469.544 271.419 470.068C274.578 470.592 277.565 468.427 278.089 465.269C278.613 462.11 276.449 459.124 273.289 458.6Z" fill="#EEB26C" fill-opacity="0.5"/>
<path d="M273.208 459.094C270.324 458.616 267.592 460.592 267.113 463.482C266.635 466.364 268.611 469.096 271.501 469.575C274.384 470.053 277.116 468.077 277.596 465.187C278.074 462.304 276.098 459.573 273.208 459.094Z" stroke="#EEB26C" stroke-opacity="0.4"/>
<path d="M539.09 420.511C535.931 419.987 532.945 422.151 532.421 425.31C531.897 428.469 534.061 431.455 537.22 431.978C540.379 432.502 543.366 430.338 543.89 427.179C544.414 424.02 542.249 421.034 539.09 420.511Z" fill="#EEB26C" fill-opacity="0.5"/>
<path d="M539.008 421.004C536.125 420.526 533.393 422.502 532.914 425.392C532.436 428.275 534.412 431.006 537.302 431.485C540.185 431.963 542.917 429.987 543.396 427.097C543.874 424.214 541.899 421.483 539.008 421.004Z" stroke="#EEB26C" stroke-opacity="0.4"/>
<path d="M201.442 388.616C198.283 388.092 195.296 390.257 194.772 393.415C194.248 396.574 196.413 399.56 199.572 400.084C202.731 400.607 205.717 398.443 206.241 395.284C206.765 392.125 204.601 389.14 201.442 388.616Z" fill="#EEB26C" fill-opacity="0.5"/>
<path d="M201.36 389.109C198.477 388.631 195.745 390.607 195.266 393.497C194.787 396.38 196.763 399.111 199.653 399.59C202.537 400.068 205.269 398.092 205.748 395.202C206.226 392.32 204.25 389.588 201.36 389.109Z" stroke="#EEB26C" stroke-opacity="0.4"/>
<path d="M380.563 280.889C377.404 280.366 374.417 282.53 373.893 285.689C373.369 288.848 375.534 291.834 378.693 292.357C381.852 292.881 384.838 290.716 385.362 287.558C385.886 284.399 383.722 281.413 380.563 280.889Z" fill="#EEB26C" fill-opacity="0.5"/>
<path d="M380.481 281.383C377.598 280.905 374.866 282.881 374.387 285.771C373.908 288.653 375.884 291.385 378.774 291.864C381.658 292.342 384.39 290.366 384.869 287.476C385.347 284.593 383.371 281.862 380.481 281.383Z" stroke="#EEB26C" stroke-opacity="0.4"/>
<path d="M621.621 400.073C618.462 399.549 615.476 401.714 614.952 404.872C614.428 408.031 616.592 411.017 619.751 411.541C622.91 412.064 625.897 409.9 626.421 406.741C626.945 403.582 624.781 400.597 621.621 400.073Z" fill="#EEB26C" fill-opacity="0.5"/>
<path d="M621.54 400.566C618.656 400.088 615.925 402.064 615.445 404.954C614.967 407.837 616.943 410.568 619.833 411.047C622.716 411.525 625.448 409.549 625.928 406.659C626.406 403.777 624.43 401.045 621.54 400.566Z" stroke="#EEB26C" stroke-opacity="0.4"/>
<path d="M518.5 488.245C515.341 487.721 512.355 489.885 511.831 493.044C511.307 496.203 513.471 499.189 516.63 499.712C519.789 500.236 522.776 498.072 523.3 494.913C523.824 491.754 521.66 488.768 518.5 488.245Z" fill="#EEB26C" fill-opacity="0.5"/>
<path d="M518.419 488.738C515.535 488.26 512.803 490.236 512.324 493.126C511.846 496.009 513.822 498.74 516.712 499.219C519.595 499.697 522.327 497.721 522.806 494.831C523.285 491.948 521.309 489.217 518.419 488.738Z" stroke="#EEB26C" stroke-opacity="0.4"/>
<path d="M158.582 360.694C155.423 360.171 152.437 362.335 151.913 365.493C151.389 368.652 153.553 371.638 156.712 372.162C159.871 372.685 162.858 370.521 163.382 367.362C163.906 364.204 161.742 361.218 158.582 360.694Z" fill="#EEB26C" fill-opacity="0.5"/>
<path d="M158.501 361.187C155.617 360.71 152.885 362.685 152.406 365.575C151.928 368.458 153.904 371.189 156.794 371.668C159.677 372.146 162.409 370.17 162.889 367.281C163.367 364.398 161.391 361.666 158.501 361.187Z" stroke="#EEB26C" stroke-opacity="0.4"/>
<path d="M27.5473 333.46C24.3881 332.936 21.4016 335.1 20.8777 338.259C20.3538 341.418 22.518 344.404 25.6771 344.927C28.8362 345.451 31.8227 343.287 32.3466 340.128C32.8705 336.969 30.7064 333.983 27.5473 333.46Z" fill="#EEB26C" fill-opacity="0.5"/>
<path d="M27.4655 333.953C24.5822 333.475 21.8503 335.451 21.371 338.341C20.8929 341.224 22.8687 343.955 25.7588 344.434C28.6422 344.912 31.3741 342.936 31.8534 340.046C32.3315 337.163 30.3557 334.432 27.4655 333.953Z" stroke="#EEB26C" stroke-opacity="0.4"/>
<path d="M459.493 537.1C456.333 536.577 453.347 538.741 452.823 541.9C452.299 545.059 454.463 548.044 457.622 548.568C460.782 549.092 463.768 546.927 464.292 543.769C464.816 540.61 462.652 537.624 459.493 537.1Z" fill="#EEB26C" fill-opacity="0.5"/>
<path d="M459.411 537.594C456.528 537.116 453.796 539.092 453.316 541.982C452.838 544.864 454.814 547.596 457.704 548.075C460.588 548.553 463.319 546.577 463.799 543.687C464.277 540.804 462.301 538.073 459.411 537.594Z" stroke="#EEB26C" stroke-opacity="0.4"/>
<path d="M271.659 464.608L458.565 542.817" stroke="#EEB26C" stroke-opacity="0.4" stroke-width="0.68" stroke-linecap="round" stroke-linejoin="round"/>
</svg>
