<svg width="2048" height="238" viewBox="0 0 2048 238" fill="none" xmlns="http://www.w3.org/2000/svg">
<g opacity="0.78">
<path d="M669.26 1L1 237.62" stroke="#87BBCE" stroke-width="0.5" stroke-miterlimit="10"/>
<path d="M693.74 1L71.5703 237.62" stroke="#87BBCE" stroke-width="0.5" stroke-miterlimit="10"/>
<path d="M718.219 1L142.129 237.62" stroke="#87BBCE" stroke-width="0.5" stroke-miterlimit="10"/>
<path d="M742.689 1L212.699 237.62" stroke="#87BBCE" stroke-width="0.5" stroke-miterlimit="10"/>
<path d="M767.168 1L283.258 237.62" stroke="#87BBCE" stroke-width="0.5" stroke-miterlimit="10"/>
<path d="M791.648 1L353.828 237.62" stroke="#87BBCE" stroke-width="0.5" stroke-miterlimit="10"/>
<path d="M816.131 1L424.391 237.62" stroke="#87BBCE" stroke-width="0.5" stroke-miterlimit="10"/>
<path d="M840.611 1L494.961 237.62" stroke="#87BBCE" stroke-width="0.5" stroke-miterlimit="10"/>
<path d="M865.08 1L565.52 237.62" stroke="#87BBCE" stroke-width="0.5" stroke-miterlimit="10"/>
<path d="M889.56 1L636.09 237.62" stroke="#87BBCE" stroke-width="0.5" stroke-miterlimit="10"/>
<path d="M914.038 1L706.648 237.62" stroke="#87BBCE" stroke-width="0.5" stroke-miterlimit="10"/>
<path d="M938.521 1L777.211 237.62" stroke="#87BBCE" stroke-width="0.5" stroke-miterlimit="10"/>
<path d="M963.001 1L847.781 237.62" stroke="#87BBCE" stroke-width="0.5" stroke-miterlimit="10"/>
<path d="M987.47 1L918.34 237.62" stroke="#87BBCE" stroke-width="0.5" stroke-miterlimit="10"/>
<path d="M1011.95 1L988.91 237.62" stroke="#87BBCE" stroke-width="0.5" stroke-miterlimit="10"/>
<path d="M1036.43 1L1059.47 237.62" stroke="#87BBCE" stroke-width="0.5" stroke-miterlimit="10"/>
<path d="M1060.91 1L1130.04 237.62" stroke="#87BBCE" stroke-width="0.5" stroke-miterlimit="10"/>
<path d="M1085.39 1L1200.6 237.62" stroke="#87BBCE" stroke-width="0.5" stroke-miterlimit="10"/>
<path d="M1109.86 1L1271.17 237.62" stroke="#87BBCE" stroke-width="0.5" stroke-miterlimit="10"/>
<path d="M1134.34 1L1341.73 237.62" stroke="#87BBCE" stroke-width="0.5" stroke-miterlimit="10"/>
<path d="M1158.82 1L1412.3 237.62" stroke="#87BBCE" stroke-width="0.5" stroke-miterlimit="10"/>
<path d="M1183.3 1L1482.86 237.62" stroke="#87BBCE" stroke-width="0.5" stroke-miterlimit="10"/>
<path d="M1207.78 1L1553.43 237.62" stroke="#87BBCE" stroke-width="0.5" stroke-miterlimit="10"/>
<path d="M1232.25 1L1623.99 237.62" stroke="#87BBCE" stroke-width="0.5" stroke-miterlimit="10"/>
<path d="M1256.73 1L1694.55 237.62" stroke="#87BBCE" stroke-width="0.5" stroke-miterlimit="10"/>
<path d="M1281.21 1L1765.12 237.62" stroke="#87BBCE" stroke-width="0.5" stroke-miterlimit="10"/>
<path d="M1305.69 1L1835.68 237.62" stroke="#87BBCE" stroke-width="0.5" stroke-miterlimit="10"/>
<path d="M1330.17 1L1906.25 237.62" stroke="#87BBCE" stroke-width="0.5" stroke-miterlimit="10"/>
<path d="M1354.64 1L1976.81 237.62" stroke="#87BBCE" stroke-width="0.5" stroke-miterlimit="10"/>
<path d="M1379.12 1L2047.38 237.62" stroke="#87BBCE" stroke-width="0.5" stroke-miterlimit="10"/>
<path d="M2002.79 199.469H45.6016" stroke="#87BBCE" stroke-width="0.5" stroke-miterlimit="10"/>
<path d="M1909.57 168.602H138.809" stroke="#87BBCE" stroke-width="0.5" stroke-miterlimit="10"/>
<path d="M1832.57 143.09H215.809" stroke="#87BBCE" stroke-width="0.5" stroke-miterlimit="10"/>
<path d="M1767.89 121.672H280.492" stroke="#87BBCE" stroke-width="0.5" stroke-miterlimit="10"/>
<path d="M1712.79 103.422H335.59" stroke="#87BBCE" stroke-width="0.5" stroke-miterlimit="10"/>
<path d="M1665.29 87.6797H383.09" stroke="#87BBCE" stroke-width="0.5" stroke-miterlimit="10"/>
<path d="M1623.93 73.9805H424.449" stroke="#87BBCE" stroke-width="0.5" stroke-miterlimit="10"/>
<path d="M1587.58 61.9414H460.809" stroke="#87BBCE" stroke-width="0.5" stroke-miterlimit="10"/>
<path d="M1555.38 51.2695L493 51.2795" stroke="#87BBCE" stroke-width="0.5" stroke-miterlimit="10"/>
<path d="M1526.66 41.7617H521.719" stroke="#87BBCE" stroke-width="0.5" stroke-miterlimit="10"/>
<path d="M1500.89 33.2305H547.492" stroke="#87BBCE" stroke-width="0.5" stroke-miterlimit="10"/>
<path d="M1477.64 25.5195H570.75" stroke="#87BBCE" stroke-width="0.5" stroke-miterlimit="10"/>
<path d="M1456.54 18.5391H591.84" stroke="#87BBCE" stroke-width="0.5" stroke-miterlimit="10"/>
<path d="M1437.33 12.1719H611.059" stroke="#87BBCE" stroke-width="0.5" stroke-miterlimit="10"/>
<path d="M1419.75 6.35156H628.641" stroke="#87BBCE" stroke-width="0.5" stroke-miterlimit="10"/>
</g>
</svg>
