<svg width="945" height="957" viewBox="0 0 945 957" fill="none" xmlns="http://www.w3.org/2000/svg">
<path d="M945 445C945 386.562 932.778 328.696 909.033 274.706C885.288 220.716 850.484 171.66 806.608 130.337C762.732 89.0154 710.644 56.2369 653.318 33.8736C595.992 11.5103 534.55 -2.55442e-06 472.5 0C410.45 2.55442e-06 349.008 11.5103 291.682 33.8736C234.356 56.237 182.268 89.0154 138.392 130.338C94.5163 171.66 59.7122 220.716 35.9669 274.706C12.2216 328.696 -5.42455e-06 386.562 0 445H198.598C198.598 411.124 205.683 377.58 219.447 346.283C233.212 314.985 253.388 286.548 278.822 262.594C304.256 238.64 334.451 219.639 367.682 206.675C400.914 193.712 436.531 187.039 472.5 187.039C508.469 187.039 544.086 193.712 577.318 206.675C610.549 219.639 640.744 238.64 666.178 262.594C691.612 286.548 711.788 314.985 725.553 346.283C739.317 377.58 746.402 411.124 746.402 445H945Z" fill="url(#paint0_linear_656_1157)"/>
<path d="M922 512C922 453.562 910.49 395.696 888.126 341.706C865.763 287.716 832.985 238.66 791.663 197.337C750.34 156.015 701.284 123.237 647.294 100.874C593.304 78.5103 535.438 67 477 67C418.562 67 360.696 78.5103 306.706 100.874C252.716 123.237 203.66 156.015 162.337 197.338C121.015 238.66 88.2369 287.716 65.8736 341.706C43.5103 395.696 32 453.562 32 512H219.039C219.039 478.124 225.712 444.58 238.675 413.283C251.639 381.985 270.64 353.548 294.594 329.594C318.548 305.64 346.985 286.639 378.283 273.675C409.58 260.712 443.124 254.039 477 254.039C510.876 254.039 544.42 260.712 575.717 273.675C607.015 286.639 635.452 305.64 659.406 329.594C683.36 353.548 702.361 381.985 715.325 413.283C728.288 444.58 734.961 478.124 734.961 512H922Z" fill="url(#paint1_linear_656_1157)"/>
<path d="M427.179 266L388 78.1719C451.278 57.9385 523.033 69.7413 551 78.1719L516.256 266H427.179Z" fill="url(#paint2_linear_656_1157)"/>
<path d="M738 509.212C738 653.793 620.922 771 476.5 771C332.078 771 215 653.793 215 509.212C215 380.08 308.393 272.785 431.248 251.329L472.791 214L510.254 251.329C638.552 268.068 738 376.208 738 509.212Z" fill="url(#paint3_linear_656_1157)" fill-opacity="0.6"/>
<path d="M734 518.212C734 662.793 618.713 780 476.5 780C334.287 780 219 662.793 219 518.212C219 389.08 310.964 281.785 431.94 260.329L472.848 223L509.738 260.329C636.074 277.068 734 385.208 734 518.212Z" fill="url(#paint4_linear_656_1157)" fill-opacity="0.6"/>
<circle cx="481.5" cy="526.5" r="238" stroke="#ABABAB" stroke-dasharray="10 10"/>
<circle cx="481.05" cy="528.745" r="222.28" stroke="#ABABAB" stroke-dasharray="10 10"/>
<circle cx="481.051" cy="529.642" r="204.314" stroke="#ABABAB" stroke-dasharray="10 10"/>
<circle cx="334.839" cy="366.839" r="5.83898" fill="#FD5A38"/>
<circle cx="618.839" cy="330.839" r="5.83898" fill="#7B33A1"/>
<circle cx="397.839" cy="303.839" r="5.83898" fill="#5473FD"/>
<defs>
<linearGradient id="paint0_linear_656_1157" x1="472.5" y1="0" x2="472.5" y2="890" gradientUnits="userSpaceOnUse">
<stop stop-color="#F1E1E1"/>
<stop offset="0.31179" stop-color="white" stop-opacity="0"/>
</linearGradient>
<linearGradient id="paint1_linear_656_1157" x1="477" y1="67" x2="477" y2="957" gradientUnits="userSpaceOnUse">
<stop stop-color="#F1E1E1"/>
<stop offset="0.31179" stop-color="white" stop-opacity="0"/>
</linearGradient>
<linearGradient id="paint2_linear_656_1157" x1="469.5" y1="67" x2="469.5" y2="266" gradientUnits="userSpaceOnUse">
<stop stop-color="white" stop-opacity="0"/>
<stop offset="1" stop-color="white"/>
</linearGradient>
<linearGradient id="paint3_linear_656_1157" x1="476.5" y1="771" x2="476.5" y2="214" gradientUnits="userSpaceOnUse">
<stop stop-color="#E5AE9A"/>
<stop offset="1" stop-color="#C2CEEC"/>
</linearGradient>
<linearGradient id="paint4_linear_656_1157" x1="476.5" y1="780" x2="476.5" y2="223" gradientUnits="userSpaceOnUse">
<stop stop-color="#E5AE9A"/>
<stop offset="1" stop-color="#C2CEEC"/>
</linearGradient>
</defs>
</svg>
