<svg width="56" height="111" viewBox="0 0 56 111" fill="none" xmlns="http://www.w3.org/2000/svg">
<g filter="url(#filter0_b_791_1455)">
<rect width="56" height="111" rx="28" fill="black" fill-opacity="0.2"/>
<path fill-rule="evenodd" clip-rule="evenodd" d="M28.0066 10.017C24.1137 10.017 20.947 13.1838 20.947 17.0766V27.1618C20.947 31.0547 24.1137 34.2214 28.0066 34.2214C31.8995 34.2214 35.0662 31.0547 35.0662 27.1618V17.0767C35.0662 13.1838 31.8995 10.017 28.0066 10.017ZM16.9129 22.7913V27.6544C16.9129 33.77 21.891 38.7481 28.0066 38.7481C34.1222 38.7481 39.1003 33.77 39.1003 27.6544V22.7913H41.1173V27.6544C41.1173 34.5441 35.7749 40.21 29.0152 40.7267L29.0151 45.983H34.0577V48H21.9555V45.983H26.9981L26.998 40.7267C20.2383 40.2099 14.8959 34.5441 14.8959 27.6544V22.7913H16.9129ZM28.0066 8C33.0109 8 37.0833 12.0724 37.0833 17.0767V27.1618C37.0833 32.1661 33.0109 36.2385 28.0066 36.2385C23.0023 36.2385 18.9299 32.1661 18.9299 27.1618V17.0767C18.9299 12.0724 23.0023 8 28.0066 8Z" fill="#8B8B8B"/>
<path fill-rule="evenodd" clip-rule="evenodd" d="M20.947 57.0766C20.947 53.1838 24.1137 50.017 28.0066 50.017C31.3257 50.017 34.1171 52.3192 34.8678 55.4107L23.0907 72.2242C21.7692 70.9404 20.947 69.1454 20.947 67.1618V57.0766ZM21.9227 73.8917C20.0858 72.2294 18.93 69.8279 18.93 67.1618V57.0766C18.93 52.0724 23.0024 48 28.0066 48C31.6932 48 34.8742 50.2102 36.2936 53.3749L40.0584 48L41.983 49.3473L14.9455 87.9475L13.0209 86.6002L19.381 77.5202C16.6337 75.1152 14.8959 71.5838 14.8959 67.6544V62.7913H16.9129V67.6544C16.9129 70.9004 18.3154 73.826 20.5461 75.8569L21.9227 73.8917ZM28.0066 74.2215C27.811 74.2215 27.6173 74.2133 27.4257 74.1977L26.1325 76.044C26.7375 76.1715 27.3644 76.2385 28.0066 76.2385C33.0109 76.2385 37.0832 72.166 37.0832 67.1618V60.4101L35.0663 63.2898V67.1618C35.0663 71.0546 31.8994 74.2215 28.0066 74.2215ZM24.6108 78.2163L23.4084 79.9329C24.5396 80.3579 25.7445 80.6308 26.9981 80.7267V85.9829H21.9555V88H34.0578V85.9829H29.0152V80.7267C35.7748 80.21 41.1173 74.5442 41.1173 67.6544V62.7913H39.1003V67.6544C39.1003 73.77 34.1223 78.7481 28.0066 78.7481C26.8228 78.7481 25.6816 78.5615 24.6108 78.2163Z" fill="#8B8B8B"/>
<g filter="url(#filter1_d_791_1455)">
<path d="M18.46 100.12C18.244 100.12 18.036 100.084 17.836 100.012C17.636 99.94 17.472 99.812 17.344 99.628C17.216 99.444 17.152 99.188 17.152 98.86V93.424H18.22V98.728C18.22 98.912 18.26 99.044 18.34 99.124C18.42 99.204 18.548 99.244 18.724 99.244C18.796 99.244 18.872 99.236 18.952 99.22C19.032 99.204 19.108 99.184 19.18 99.16L19.324 99.94C19.172 100.012 19.024 100.06 18.88 100.084C18.736 100.108 18.596 100.12 18.46 100.12ZM24.2459 100V95.62C24.2459 95.1 24.1259 94.732 23.8859 94.516C23.6539 94.292 23.2619 94.18 22.7099 94.18C22.3099 94.18 21.9259 94.236 21.5579 94.348C21.1979 94.452 20.8539 94.6 20.5259 94.792V93.796C20.7579 93.676 21.0699 93.564 21.4619 93.46C21.8619 93.356 22.3099 93.304 22.8059 93.304C23.2299 93.304 23.5899 93.352 23.8859 93.448C24.1899 93.544 24.4139 93.72 24.5579 93.976C24.8379 94.104 25.0299 94.304 25.1339 94.576C25.2459 94.848 25.3019 95.176 25.3019 95.56V100H24.2459ZM22.1819 100.12C21.4779 100.12 20.9379 99.96 20.5619 99.64C20.1939 99.312 20.0099 98.844 20.0099 98.236C20.0099 97.572 20.2499 97.06 20.7299 96.7C21.2179 96.34 22.0059 96.128 23.0939 96.064L24.4619 95.98V96.868L23.2379 96.952C22.4219 97.008 21.8579 97.136 21.5459 97.336C21.2419 97.536 21.0899 97.828 21.0899 98.212C21.0899 98.572 21.2019 98.836 21.4259 99.004C21.6579 99.172 21.9779 99.256 22.3859 99.256C22.5219 99.256 22.6459 99.248 22.7579 99.232C22.8699 99.208 22.9779 99.18 23.0819 99.148L23.2499 99.952C23.0979 100.008 22.9299 100.048 22.7459 100.072C22.5699 100.104 22.3819 100.12 22.1819 100.12ZM24.5219 94.348L23.9219 93.784C24.1299 93.752 24.3259 93.672 24.5099 93.544C24.6939 93.416 24.7859 93.232 24.7859 92.992H25.8299C25.8299 93.24 25.7699 93.46 25.6499 93.652C25.5379 93.836 25.3819 93.988 25.1819 94.108C24.9819 94.22 24.7619 94.3 24.5219 94.348ZM20.2031 92.38V91.912L21.0791 91.528H25.3031V92.38H20.2031ZM24.3071 91.912V90.556H25.3151V91.912H24.3071ZM29.7931 100.108C29.1451 100.108 28.6251 100.024 28.2331 99.856C27.8491 99.688 27.5691 99.452 27.3931 99.148C27.2251 98.844 27.1411 98.484 27.1411 98.068C27.1411 97.7 27.1931 97.408 27.2971 97.192C27.4091 96.968 27.5451 96.804 27.7051 96.7C27.8731 96.596 28.0451 96.528 28.2211 96.496V96.448C28.0611 96.4 27.8931 96.32 27.7171 96.208C27.5411 96.096 27.3931 95.94 27.2731 95.74C27.1611 95.54 27.1051 95.288 27.1051 94.984C27.1051 94.704 27.1691 94.44 27.2971 94.192C27.4251 93.944 27.6331 93.74 27.9211 93.58C28.2091 93.42 28.5891 93.34 29.0611 93.34C29.2531 93.34 29.4531 93.356 29.6611 93.388C29.8691 93.412 30.0291 93.456 30.1411 93.52L29.9491 94.348C29.8611 94.316 29.7451 94.288 29.6011 94.264C29.4651 94.232 29.3211 94.216 29.1691 94.216C28.8331 94.216 28.5851 94.296 28.4251 94.456C28.2651 94.608 28.1851 94.812 28.1851 95.068C28.1851 95.348 28.2531 95.56 28.3891 95.704C28.5331 95.848 28.7131 95.948 28.9291 96.004C29.1531 96.052 29.3851 96.076 29.6251 96.076H29.8531V96.856H29.6251C29.1451 96.856 28.7891 96.944 28.5571 97.12C28.3331 97.288 28.2211 97.572 28.2211 97.972C28.2211 98.204 28.2651 98.416 28.3531 98.608C28.4491 98.8 28.6091 98.952 28.8331 99.064C29.0651 99.176 29.3851 99.232 29.7931 99.232C30.2011 99.232 30.5171 99.176 30.7411 99.064C30.9731 98.952 31.1371 98.792 31.2331 98.584C31.3291 98.368 31.3771 98.112 31.3771 97.816V93.424H32.4451V97.744C32.4451 98.584 32.2291 99.188 31.7971 99.556C31.3731 99.924 30.7051 100.108 29.7931 100.108ZM35.4661 100L33.4141 93.424H34.4941L36.2701 99.076H36.4141C36.6061 99.076 36.7941 99.032 36.9781 98.944C37.1621 98.848 37.3181 98.728 37.4461 98.584C37.6861 98.32 37.8621 97.988 37.9741 97.588C38.0861 97.18 38.1421 96.78 38.1421 96.388C38.1421 95.724 37.9901 95.204 37.6861 94.828C37.3901 94.444 36.9781 94.252 36.4501 94.252C36.3461 94.252 36.2421 94.26 36.1381 94.276C36.0421 94.292 35.9621 94.312 35.8981 94.336L35.6341 93.484C35.8021 93.436 35.9581 93.404 36.1021 93.388C36.2541 93.372 36.3901 93.364 36.5101 93.364C36.9101 93.364 37.2661 93.424 37.5781 93.544C37.8981 93.656 38.1701 93.824 38.3941 94.048C38.6741 94.32 38.8781 94.66 39.0061 95.068C39.1421 95.476 39.2101 95.928 39.2101 96.424C39.2101 97.048 39.1141 97.604 38.9221 98.092C38.7301 98.572 38.4901 98.956 38.2021 99.244C37.9701 99.476 37.6861 99.66 37.3501 99.796C37.0141 99.932 36.5861 100 36.0661 100H35.4661Z" fill="white"/>
</g>
</g>
<defs>
<filter id="filter0_b_791_1455" x="-20" y="-20" width="96" height="151" filterUnits="userSpaceOnUse" color-interpolation-filters="sRGB">
<feFlood flood-opacity="0" result="BackgroundImageFix"/>
<feGaussianBlur in="BackgroundImageFix" stdDeviation="10"/>
<feComposite in2="SourceAlpha" operator="in" result="effect1_backgroundBlur_791_1455"/>
<feBlend mode="normal" in="SourceGraphic" in2="effect1_backgroundBlur_791_1455" result="shape"/>
</filter>
<filter id="filter1_d_791_1455" x="11.152" y="84.5557" width="34.0581" height="21.5645" filterUnits="userSpaceOnUse" color-interpolation-filters="sRGB">
<feFlood flood-opacity="0" result="BackgroundImageFix"/>
<feColorMatrix in="SourceAlpha" type="matrix" values="0 0 0 0 0 0 0 0 0 0 0 0 0 0 0 0 0 0 127 0" result="hardAlpha"/>
<feOffset/>
<feGaussianBlur stdDeviation="3"/>
<feComposite in2="hardAlpha" operator="out"/>
<feColorMatrix type="matrix" values="0 0 0 0 0 0 0 0 0 0 0 0 0 0 0 0 0 0 0.3 0"/>
<feBlend mode="normal" in2="BackgroundImageFix" result="effect1_dropShadow_791_1455"/>
<feBlend mode="normal" in="SourceGraphic" in2="effect1_dropShadow_791_1455" result="shape"/>
</filter>
</defs>
</svg>
