<svg width="1920" height="52" viewBox="0 0 1920 52" fill="none" xmlns="http://www.w3.org/2000/svg">
<rect width="1929" height="52" fill="white"/>
<path d="M771.438 32V20.7266H773.07L776.93 30.1328H777.055L780.914 20.7266H782.547V32H781.234V23.3906H780.547L782.125 21.0391L777.586 32H776.398L771.867 21.0391L773.438 23.3906H772.75V32H771.438ZM788.688 32.1484C787.885 32.1484 787.195 31.9714 786.617 31.6172C786.044 31.263 785.602 30.763 785.289 30.1172C784.982 29.4661 784.828 28.7005 784.828 27.8203V27.8125C784.828 26.9427 784.982 26.1797 785.289 25.5234C785.602 24.8672 786.042 24.3542 786.609 23.9844C787.177 23.6146 787.841 23.4297 788.602 23.4297C789.367 23.4297 790.023 23.6068 790.57 23.9609C791.122 24.3151 791.544 24.8099 791.836 25.4453C792.133 26.0755 792.281 26.8099 792.281 27.6484V28.1797H785.531V27.0938H791.586L790.914 28.0859V27.5469C790.914 26.8854 790.815 26.3411 790.617 25.9141C790.419 25.487 790.146 25.1693 789.797 24.9609C789.448 24.7474 789.047 24.6406 788.594 24.6406C788.141 24.6406 787.734 24.7526 787.375 24.9766C787.021 25.1953 786.74 25.5208 786.531 25.9531C786.323 26.3854 786.219 26.9167 786.219 27.5469V28.0859C786.219 28.6849 786.32 29.1979 786.523 29.625C786.727 30.0469 787.016 30.3724 787.391 30.6016C787.766 30.8255 788.208 30.9375 788.719 30.9375C789.099 30.9375 789.43 30.8854 789.711 30.7812C789.992 30.6771 790.224 30.5443 790.406 30.3828C790.589 30.2214 790.716 30.0573 790.789 29.8906L790.82 29.8203H792.18L792.164 29.8828C792.091 30.1693 791.961 30.4479 791.773 30.7188C791.591 30.9844 791.354 31.2266 791.062 31.4453C790.771 31.6589 790.424 31.8307 790.023 31.9609C789.628 32.0859 789.182 32.1484 788.688 32.1484ZM797.383 32.0625C796.518 32.0625 795.891 31.888 795.5 31.5391C795.115 31.1901 794.922 30.6146 794.922 29.8125V24.7031H793.594V23.5781H794.922V21.3984H796.328V23.5781H798.172V24.7031H796.328V29.4688C796.328 29.9635 796.422 30.3203 796.609 30.5391C796.797 30.7526 797.109 30.8594 797.547 30.8594C797.667 30.8594 797.768 30.8568 797.852 30.8516C797.94 30.8464 798.047 30.8385 798.172 30.8281V31.9844C798.042 32.0052 797.911 32.0234 797.781 32.0391C797.651 32.0547 797.518 32.0625 797.383 32.0625ZM802.516 32.1484C801.984 32.1484 801.505 32.0469 801.078 31.8438C800.656 31.6406 800.32 31.3516 800.07 30.9766C799.826 30.6016 799.703 30.1589 799.703 29.6484V29.6328C799.703 29.1328 799.823 28.7057 800.062 28.3516C800.302 27.9922 800.651 27.7109 801.109 27.5078C801.568 27.3047 802.122 27.1849 802.773 27.1484L805.867 26.9609V28.0469L802.938 28.2344C802.297 28.2708 801.828 28.4036 801.531 28.6328C801.24 28.862 801.094 29.1849 801.094 29.6016V29.6172C801.094 30.0443 801.255 30.3776 801.578 30.6172C801.901 30.8516 802.307 30.9688 802.797 30.9688C803.26 30.9688 803.672 30.8776 804.031 30.6953C804.391 30.5078 804.672 30.2552 804.875 29.9375C805.083 29.6198 805.188 29.2604 805.188 28.8594V26.2344C805.188 25.7135 805.029 25.3177 804.711 25.0469C804.398 24.7708 803.927 24.6328 803.297 24.6328C802.792 24.6328 802.378 24.724 802.055 24.9062C801.732 25.0833 801.516 25.3359 801.406 25.6641L801.398 25.6875H800.039L800.047 25.6406C800.12 25.1979 800.302 24.8125 800.594 24.4844C800.891 24.151 801.273 23.8932 801.742 23.7109C802.211 23.5234 802.745 23.4297 803.344 23.4297C804.031 23.4297 804.612 23.5417 805.086 23.7656C805.565 23.9896 805.927 24.3125 806.172 24.7344C806.422 25.151 806.547 25.651 806.547 26.2344V32H805.188V30.7578H805.062C804.885 31.0547 804.669 31.3073 804.414 31.5156C804.164 31.724 803.88 31.8828 803.562 31.9922C803.245 32.0964 802.896 32.1484 802.516 32.1484ZM811.102 32L807.984 23.5781H809.422L811.727 30.5156H811.852L814.156 23.5781H815.594L812.477 32H811.102ZM820.516 32.1484C819.714 32.1484 819.023 31.9714 818.445 31.6172C817.872 31.263 817.43 30.763 817.117 30.1172C816.81 29.4661 816.656 28.7005 816.656 27.8203V27.8125C816.656 26.9427 816.81 26.1797 817.117 25.5234C817.43 24.8672 817.87 24.3542 818.438 23.9844C819.005 23.6146 819.669 23.4297 820.43 23.4297C821.195 23.4297 821.852 23.6068 822.398 23.9609C822.951 24.3151 823.372 24.8099 823.664 25.4453C823.961 26.0755 824.109 26.8099 824.109 27.6484V28.1797H817.359V27.0938H823.414L822.742 28.0859V27.5469C822.742 26.8854 822.643 26.3411 822.445 25.9141C822.247 25.487 821.974 25.1693 821.625 24.9609C821.276 24.7474 820.875 24.6406 820.422 24.6406C819.969 24.6406 819.562 24.7526 819.203 24.9766C818.849 25.1953 818.568 25.5208 818.359 25.9531C818.151 26.3854 818.047 26.9167 818.047 27.5469V28.0859C818.047 28.6849 818.148 29.1979 818.352 29.625C818.555 30.0469 818.844 30.3724 819.219 30.6016C819.594 30.8255 820.036 30.9375 820.547 30.9375C820.927 30.9375 821.258 30.8854 821.539 30.7812C821.82 30.6771 822.052 30.5443 822.234 30.3828C822.417 30.2214 822.544 30.0573 822.617 29.8906L822.648 29.8203H824.008L823.992 29.8828C823.919 30.1693 823.789 30.4479 823.602 30.7188C823.419 30.9844 823.182 31.2266 822.891 31.4453C822.599 31.6589 822.253 31.8307 821.852 31.9609C821.456 32.0859 821.01 32.1484 820.516 32.1484ZM826.219 32V23.5781H827.578V24.8281H827.703C827.865 24.3854 828.138 24.0417 828.523 23.7969C828.909 23.5521 829.385 23.4297 829.953 23.4297C830.083 23.4297 830.211 23.4375 830.336 23.4531C830.466 23.4635 830.565 23.474 830.633 23.4844V24.8047C830.492 24.7786 830.354 24.7604 830.219 24.75C830.089 24.7344 829.948 24.7266 829.797 24.7266C829.365 24.7266 828.982 24.8125 828.648 24.9844C828.315 25.1562 828.052 25.3958 827.859 25.7031C827.672 26.0104 827.578 26.3698 827.578 26.7812V32H826.219ZM835.047 32.1484C834.422 32.1484 833.87 32.0547 833.391 31.8672C832.911 31.6745 832.526 31.4062 832.234 31.0625C831.948 30.7188 831.779 30.3151 831.727 29.8516H833.117C833.232 30.2005 833.456 30.4818 833.789 30.6953C834.122 30.9089 834.557 31.0156 835.094 31.0156C835.474 31.0156 835.807 30.9609 836.094 30.8516C836.385 30.737 836.615 30.5833 836.781 30.3906C836.948 30.1927 837.031 29.9661 837.031 29.7109V29.6953C837.031 29.4089 836.917 29.1667 836.688 28.9688C836.458 28.7656 836.083 28.6016 835.562 28.4766L834.258 28.1641C833.732 28.0391 833.299 27.8776 832.961 27.6797C832.622 27.4766 832.372 27.2292 832.211 26.9375C832.049 26.6406 831.969 26.2917 831.969 25.8906V25.8828C831.969 25.4141 832.104 24.9948 832.375 24.625C832.651 24.2552 833.026 23.9635 833.5 23.75C833.974 23.5365 834.508 23.4297 835.102 23.4297C835.69 23.4297 836.211 23.5234 836.664 23.7109C837.122 23.8932 837.49 24.1536 837.766 24.4922C838.047 24.8307 838.219 25.2292 838.281 25.6875H836.945C836.857 25.3542 836.654 25.0833 836.336 24.875C836.018 24.6667 835.604 24.5625 835.094 24.5625C834.76 24.5625 834.464 24.6172 834.203 24.7266C833.943 24.8307 833.737 24.9766 833.586 25.1641C833.435 25.3516 833.359 25.5703 833.359 25.8203V25.8359C833.359 26.0234 833.409 26.1901 833.508 26.3359C833.607 26.4818 833.76 26.6094 833.969 26.7188C834.177 26.8281 834.445 26.9245 834.773 27.0078L836.07 27.3203C836.862 27.513 837.451 27.7891 837.836 28.1484C838.227 28.5078 838.422 28.9896 838.422 29.5938V29.6094C838.422 30.1094 838.273 30.5521 837.977 30.9375C837.68 31.3177 837.276 31.6146 836.766 31.8281C836.26 32.0417 835.688 32.1484 835.047 32.1484ZM843.969 32.1484C843.167 32.1484 842.477 31.9714 841.898 31.6172C841.326 31.263 840.883 30.763 840.57 30.1172C840.263 29.4661 840.109 28.7005 840.109 27.8203V27.8125C840.109 26.9427 840.263 26.1797 840.57 25.5234C840.883 24.8672 841.323 24.3542 841.891 23.9844C842.458 23.6146 843.122 23.4297 843.883 23.4297C844.648 23.4297 845.305 23.6068 845.852 23.9609C846.404 24.3151 846.826 24.8099 847.117 25.4453C847.414 26.0755 847.562 26.8099 847.562 27.6484V28.1797H840.812V27.0938H846.867L846.195 28.0859V27.5469C846.195 26.8854 846.096 26.3411 845.898 25.9141C845.701 25.487 845.427 25.1693 845.078 24.9609C844.729 24.7474 844.328 24.6406 843.875 24.6406C843.422 24.6406 843.016 24.7526 842.656 24.9766C842.302 25.1953 842.021 25.5208 841.812 25.9531C841.604 26.3854 841.5 26.9167 841.5 27.5469V28.0859C841.5 28.6849 841.602 29.1979 841.805 29.625C842.008 30.0469 842.297 30.3724 842.672 30.6016C843.047 30.8255 843.49 30.9375 844 30.9375C844.38 30.9375 844.711 30.8854 844.992 30.7812C845.273 30.6771 845.505 30.5443 845.688 30.3828C845.87 30.2214 845.997 30.0573 846.07 29.8906L846.102 29.8203H847.461L847.445 29.8828C847.372 30.1693 847.242 30.4479 847.055 30.7188C846.872 30.9844 846.635 31.2266 846.344 31.4453C846.052 31.6589 845.706 31.8307 845.305 31.9609C844.909 32.0859 844.464 32.1484 843.969 32.1484ZM857.633 32.1484C856.836 32.1484 856.146 31.974 855.562 31.625C854.984 31.2708 854.536 30.7682 854.219 30.1172C853.906 29.4661 853.75 28.6927 853.75 27.7969V27.7812C853.75 26.8802 853.906 26.1042 854.219 25.4531C854.536 24.8021 854.984 24.3021 855.562 23.9531C856.146 23.6042 856.836 23.4297 857.633 23.4297C858.435 23.4297 859.125 23.6042 859.703 23.9531C860.281 24.3021 860.727 24.8021 861.039 25.4531C861.357 26.1042 861.516 26.8802 861.516 27.7812V27.7969C861.516 28.6927 861.357 29.4661 861.039 30.1172C860.727 30.7682 860.281 31.2708 859.703 31.625C859.125 31.974 858.435 32.1484 857.633 32.1484ZM857.633 30.9453C858.164 30.9453 858.615 30.8203 858.984 30.5703C859.354 30.3203 859.635 29.9609 859.828 29.4922C860.026 29.0234 860.125 28.4583 860.125 27.7969V27.7812C860.125 27.1146 860.026 26.5469 859.828 26.0781C859.635 25.6094 859.354 25.2526 858.984 25.0078C858.615 24.7578 858.164 24.6328 857.633 24.6328C857.102 24.6328 856.651 24.7578 856.281 25.0078C855.911 25.2526 855.628 25.6094 855.43 26.0781C855.237 26.5469 855.141 27.1146 855.141 27.7812V27.7969C855.141 28.4583 855.237 29.0234 855.43 29.4922C855.628 29.9609 855.911 30.3203 856.281 30.5703C856.651 30.8203 857.102 30.9453 857.633 30.9453ZM864.188 32V24.7031H862.789V23.5781H864.188V22.6406C864.188 22.0781 864.279 21.6146 864.461 21.25C864.648 20.8802 864.924 20.6068 865.289 20.4297C865.654 20.2474 866.102 20.1562 866.633 20.1562C866.799 20.1562 866.956 20.1641 867.102 20.1797C867.253 20.1901 867.398 20.2083 867.539 20.2344V21.3203C867.456 21.3047 867.359 21.2943 867.25 21.2891C867.141 21.2839 867.026 21.2812 866.906 21.2812C866.422 21.2812 866.073 21.3984 865.859 21.6328C865.651 21.8672 865.547 22.2161 865.547 22.6797V23.5781H867.461V24.7031H865.547V32H864.188ZM874.797 27.9766V26.7266H877.984C878.792 26.7266 879.417 26.5182 879.859 26.1016C880.302 25.6797 880.523 25.099 880.523 24.3594V24.3438C880.523 23.599 880.302 23.0182 879.859 22.6016C879.417 22.1849 878.792 21.9766 877.984 21.9766H874.797V20.7266H878.344C879.052 20.7266 879.677 20.8776 880.219 21.1797C880.76 21.4818 881.185 21.9036 881.492 22.4453C881.805 22.987 881.961 23.6146 881.961 24.3281V24.3438C881.961 25.0573 881.805 25.6875 881.492 26.2344C881.185 26.7812 880.76 27.2083 880.219 27.5156C879.677 27.8229 879.052 27.9766 878.344 27.9766H874.797ZM874.094 32V20.7266H875.5V32H874.094ZM887.961 32.2656C887.138 32.2656 886.419 32.1328 885.805 31.8672C885.195 31.5964 884.711 31.2266 884.352 30.7578C883.997 30.2839 883.792 29.7422 883.734 29.1328L883.727 29.0469H885.133L885.141 29.1328C885.177 29.5078 885.32 29.8333 885.57 30.1094C885.826 30.3802 886.164 30.5911 886.586 30.7422C887.013 30.8932 887.497 30.9688 888.039 30.9688C888.549 30.9688 889.003 30.888 889.398 30.7266C889.799 30.5599 890.115 30.3307 890.344 30.0391C890.573 29.7474 890.688 29.4115 890.688 29.0312V29.0234C890.688 28.5547 890.516 28.1615 890.172 27.8438C889.828 27.5208 889.268 27.2734 888.492 27.1016L887.242 26.8281C886.112 26.5781 885.289 26.1927 884.773 25.6719C884.263 25.1458 884.008 24.474 884.008 23.6562V23.6484C884.013 23.0234 884.182 22.4714 884.516 21.9922C884.854 21.513 885.32 21.138 885.914 20.8672C886.513 20.5964 887.201 20.4609 887.977 20.4609C888.727 20.4609 889.391 20.5964 889.969 20.8672C890.547 21.1328 891.005 21.4922 891.344 21.9453C891.688 22.3984 891.878 22.9062 891.914 23.4688L891.922 23.5781H890.516L890.5 23.4766C890.448 23.1432 890.312 22.849 890.094 22.5938C889.875 22.3333 889.583 22.1276 889.219 21.9766C888.854 21.8255 888.427 21.7526 887.938 21.7578C887.469 21.7578 887.047 21.8307 886.672 21.9766C886.297 22.1224 885.997 22.3333 885.773 22.6094C885.555 22.8802 885.445 23.2135 885.445 23.6094V23.6172C885.445 24.0651 885.612 24.4427 885.945 24.75C886.279 25.0573 886.828 25.2943 887.594 25.4609L888.844 25.7422C889.63 25.9141 890.263 26.138 890.742 26.4141C891.221 26.6901 891.57 27.0286 891.789 27.4297C892.013 27.8255 892.125 28.2943 892.125 28.8359V28.8438C892.125 29.5469 891.953 30.1536 891.609 30.6641C891.266 31.1745 890.781 31.5703 890.156 31.8516C889.531 32.1276 888.799 32.2656 887.961 32.2656ZM899.008 32.2656C897.987 32.2656 897.104 32.026 896.359 31.5469C895.615 31.0677 895.039 30.388 894.633 29.5078C894.232 28.6276 894.031 27.5833 894.031 26.375V26.3594C894.031 25.1458 894.232 24.099 894.633 23.2188C895.039 22.3385 895.612 21.6589 896.352 21.1797C897.096 20.7005 897.979 20.4609 899 20.4609C899.792 20.4609 900.51 20.6172 901.156 20.9297C901.807 21.237 902.344 21.6667 902.766 22.2188C903.188 22.7656 903.453 23.3984 903.562 24.1172L903.555 24.1328H902.141L902.133 24.1172C902.008 23.6328 901.797 23.2161 901.5 22.8672C901.203 22.513 900.841 22.2396 900.414 22.0469C899.992 21.8542 899.521 21.7578 899 21.7578C898.281 21.7578 897.656 21.9453 897.125 22.3203C896.599 22.6953 896.193 23.2266 895.906 23.9141C895.62 24.6016 895.477 25.4167 895.477 26.3594V26.375C895.477 27.3125 895.62 28.125 895.906 28.8125C896.193 29.5 896.599 30.0312 897.125 30.4062C897.656 30.7812 898.284 30.9688 899.008 30.9688C899.534 30.9688 900.01 30.8854 900.438 30.7188C900.865 30.5469 901.224 30.3047 901.516 29.9922C901.807 29.6745 902.01 29.2995 902.125 28.8672L902.141 28.8516H903.562V28.8672C903.438 29.5547 903.167 30.1536 902.75 30.6641C902.333 31.1693 901.805 31.5625 901.164 31.8438C900.529 32.125 899.81 32.2656 899.008 32.2656ZM905.922 32V20.7266H907.555L911.414 30.1328H911.539L915.398 20.7266H917.031V32H915.719V23.3906H915.031L916.609 21.0391L912.07 32H910.883L906.352 21.0391L907.922 23.3906H907.234V32H905.922ZM926.025 32.16C925.609 32.16 925.203 32.1173 924.809 32.032C924.425 31.9467 924.014 31.7867 923.577 31.552L924.025 30.464C924.259 30.6027 924.526 30.7253 924.825 30.832C925.123 30.928 925.47 30.976 925.865 30.976C926.654 30.976 927.267 30.688 927.705 30.112C928.153 29.5253 928.377 28.6827 928.377 27.584C928.377 26.5067 928.147 25.6853 927.689 25.12C927.241 24.544 926.547 24.256 925.609 24.256C925.267 24.256 924.921 24.2933 924.569 24.368C924.217 24.4427 923.907 24.5547 923.641 24.704V23.504C923.95 23.344 924.286 23.232 924.649 23.168C925.022 23.104 925.395 23.072 925.769 23.072C926.729 23.072 927.507 23.264 928.105 23.648C928.702 24.0213 929.139 24.544 929.417 25.216C929.694 25.888 929.833 26.6773 929.833 27.584C929.833 28.992 929.513 30.1067 928.873 30.928C928.243 31.7493 927.294 32.16 926.025 32.16ZM922.776 21.84V21.216L923.944 20.704H929.576V21.84H922.776ZM932.188 32V23.232H933.18L933.436 24.624H933.5C933.681 24.144 934.012 23.7653 934.492 23.488C934.972 23.2107 935.553 23.072 936.236 23.072C936.876 23.072 937.42 23.184 937.868 23.408C938.326 23.6213 938.678 23.952 938.924 24.4C939.169 24.848 939.292 25.4293 939.292 26.144V32H937.868V26.224C937.868 25.584 937.708 25.0987 937.388 24.768C937.068 24.4373 936.593 24.272 935.964 24.272C935.462 24.272 935.036 24.3893 934.684 24.624C934.332 24.8587 934.065 25.1787 933.884 25.584C933.702 25.9787 933.612 26.4267 933.612 26.928V32H932.188ZM945.266 32.144C944.402 32.144 943.708 32.032 943.186 31.808C942.674 31.584 942.3 31.2693 942.066 30.864C941.842 30.4587 941.73 29.9787 941.73 29.424C941.73 28.9333 941.799 28.544 941.938 28.256C942.087 27.9573 942.268 27.7387 942.482 27.6C942.706 27.4613 942.935 27.3707 943.17 27.328V27.264C942.956 27.2 942.732 27.0933 942.498 26.944C942.263 26.7947 942.066 26.5867 941.906 26.32C941.756 26.0533 941.682 25.7173 941.682 25.312C941.682 24.9387 941.767 24.5867 941.938 24.256C942.108 23.9253 942.386 23.6533 942.77 23.44C943.154 23.2267 943.66 23.12 944.29 23.12C944.546 23.12 944.812 23.1413 945.09 23.184C945.367 23.216 945.58 23.2747 945.73 23.36L945.474 24.464C945.356 24.4213 945.202 24.384 945.01 24.352C944.828 24.3093 944.636 24.288 944.434 24.288C943.986 24.288 943.655 24.3947 943.442 24.608C943.228 24.8107 943.122 25.0827 943.122 25.424C943.122 25.7973 943.212 26.08 943.394 26.272C943.586 26.464 943.826 26.5973 944.114 26.672C944.412 26.736 944.722 26.768 945.042 26.768H945.346V27.808H945.042C944.402 27.808 943.927 27.9253 943.618 28.16C943.319 28.384 943.17 28.7627 943.17 29.296C943.17 29.6053 943.228 29.888 943.346 30.144C943.474 30.4 943.687 30.6027 943.986 30.752C944.295 30.9013 944.722 30.976 945.266 30.976C945.81 30.976 946.231 30.9013 946.53 30.752C946.839 30.6027 947.058 30.3893 947.186 30.112C947.314 29.824 947.378 29.4827 947.378 29.088V23.232H948.802V28.992C948.802 30.112 948.514 30.9173 947.938 31.408C947.372 31.8987 946.482 32.144 945.266 32.144ZM953.87 32V25.776C953.87 25.2533 953.747 24.8693 953.502 24.624C953.267 24.3787 952.867 24.256 952.302 24.256C951.918 24.256 951.555 24.3093 951.214 24.416C950.883 24.512 950.563 24.6507 950.254 24.832V23.552C950.467 23.4453 950.771 23.3387 951.166 23.232C951.56 23.1253 952.03 23.072 952.574 23.072C953.128 23.072 953.608 23.152 954.014 23.312C954.419 23.472 954.734 23.7387 954.958 24.112C955.182 24.4747 955.294 24.96 955.294 25.568V32H953.87ZM963.026 32V26.16C963.026 25.4667 962.866 24.976 962.546 24.688C962.236 24.3893 961.714 24.24 960.978 24.24C960.444 24.24 959.932 24.3147 959.442 24.464C958.962 24.6027 958.503 24.8 958.066 25.056V23.728C958.375 23.568 958.791 23.4187 959.314 23.28C959.847 23.1413 960.444 23.072 961.106 23.072C961.671 23.072 962.162 23.136 962.578 23.264C962.994 23.3813 963.335 23.5627 963.602 23.808C963.879 24.0533 964.087 24.368 964.226 24.752C964.364 25.1253 964.434 25.568 964.434 26.08V32H963.026ZM960.274 32.16C959.335 32.16 958.615 31.9467 958.114 31.52C957.623 31.0827 957.378 30.4587 957.378 29.648C957.378 28.7627 957.698 28.08 958.338 27.6C958.988 27.12 960.039 26.8373 961.49 26.752L963.314 26.64V27.824L961.682 27.936C960.594 28.0107 959.842 28.1813 959.426 28.448C959.02 28.7147 958.818 29.104 958.818 29.616C958.818 30.096 958.967 30.448 959.266 30.672C959.575 30.896 960.002 31.008 960.546 31.008C960.727 31.008 960.892 30.9973 961.042 30.976C961.191 30.944 961.335 30.9067 961.474 30.864L961.698 31.936C961.495 32.0107 961.271 32.064 961.026 32.096C960.791 32.1387 960.54 32.16 960.274 32.16ZM962.169 21.84C961.721 21.84 961.364 21.776 961.097 21.648C960.83 21.52 960.638 21.3547 960.521 21.152C960.393 20.9493 960.329 20.736 960.329 20.512C960.329 20.352 960.356 20.1813 960.409 20C960.452 19.808 960.51 19.6533 960.585 19.536L961.785 19.744C961.764 19.7867 961.742 19.8613 961.721 19.968C961.7 20.064 961.689 20.1547 961.689 20.24C961.689 20.3787 961.732 20.5013 961.817 20.608C961.902 20.704 962.046 20.752 962.249 20.752H966.297V21.84H962.169ZM970.406 32.144C969.542 32.144 968.849 32.032 968.326 31.808C967.814 31.584 967.441 31.2693 967.206 30.864C966.982 30.4587 966.87 29.9787 966.87 29.424C966.87 28.9333 966.94 28.544 967.078 28.256C967.228 27.9573 967.409 27.7387 967.622 27.6C967.846 27.4613 968.076 27.3707 968.31 27.328V27.264C968.097 27.2 967.873 27.0933 967.638 26.944C967.404 26.7947 967.206 26.5867 967.046 26.32C966.897 26.0533 966.822 25.7173 966.822 25.312C966.822 24.9387 966.908 24.5867 967.078 24.256C967.249 23.9253 967.526 23.6533 967.91 23.44C968.294 23.2267 968.801 23.12 969.43 23.12C969.686 23.12 969.953 23.1413 970.23 23.184C970.508 23.216 970.721 23.2747 970.87 23.36L970.614 24.464C970.497 24.4213 970.342 24.384 970.15 24.352C969.969 24.3093 969.777 24.288 969.574 24.288C969.126 24.288 968.796 24.3947 968.582 24.608C968.369 24.8107 968.262 25.0827 968.262 25.424C968.262 25.7973 968.353 26.08 968.534 26.272C968.726 26.464 968.966 26.5973 969.254 26.672C969.553 26.736 969.862 26.768 970.182 26.768H970.486V27.808H970.182C969.542 27.808 969.068 27.9253 968.758 28.16C968.46 28.384 968.31 28.7627 968.31 29.296C968.31 29.6053 968.369 29.888 968.486 30.144C968.614 30.4 968.828 30.6027 969.126 30.752C969.436 30.9013 969.862 30.976 970.406 30.976C970.95 30.976 971.372 30.9013 971.67 30.752C971.98 30.6027 972.198 30.3893 972.326 30.112C972.454 29.824 972.518 29.4827 972.518 29.088V23.232H973.942V28.992C973.942 30.112 973.654 30.9173 973.078 31.408C972.513 31.8987 971.622 32.144 970.406 32.144ZM978.514 32.16C978.226 32.16 977.949 32.112 977.682 32.016C977.416 31.92 977.197 31.7493 977.026 31.504C976.856 31.2587 976.77 30.9173 976.77 30.48V23.232H978.194V30.304C978.194 30.5493 978.248 30.7253 978.354 30.832C978.461 30.9387 978.632 30.992 978.866 30.992C978.962 30.992 979.064 30.9813 979.17 30.96C979.277 30.9387 979.378 30.912 979.474 30.88L979.666 31.92C979.464 32.016 979.266 32.08 979.074 32.112C978.882 32.144 978.696 32.16 978.514 32.16ZM982.882 32.16C982.594 32.16 982.317 32.112 982.05 32.016C981.784 31.92 981.565 31.7493 981.394 31.504C981.224 31.2587 981.138 30.9173 981.138 30.48V23.232H982.562V30.304C982.562 30.5493 982.616 30.7253 982.722 30.832C982.829 30.9387 983 30.992 983.234 30.992C983.33 30.992 983.432 30.9813 983.538 30.96C983.645 30.9387 983.746 30.912 983.842 30.88L984.034 31.92C983.832 32.016 983.634 32.08 983.442 32.112C983.25 32.144 983.064 32.16 982.882 32.16ZM986.271 32L984.687 23.232H986.143L986.767 27.04C986.821 27.3493 986.874 27.7493 986.927 28.24C986.981 28.7307 987.045 29.312 987.119 29.984H987.167C987.263 29.5253 987.354 29.1147 987.439 28.752C987.535 28.3893 987.621 28.064 987.695 27.776C987.781 27.4773 987.855 27.216 987.919 26.992L988.991 23.232H990.159L991.247 26.992C991.311 27.216 991.381 27.4773 991.455 27.776C991.541 28.064 991.626 28.3893 991.711 28.752C991.807 29.1147 991.903 29.5253 991.999 29.984H992.063C992.127 29.312 992.186 28.7307 992.239 28.24C992.293 27.7493 992.346 27.3493 992.399 27.04L993.039 23.232H994.495L992.911 32H991.519L990.047 27.232C989.973 26.9653 989.898 26.688 989.823 26.4C989.759 26.112 989.695 25.7333 989.631 25.264H989.567C989.525 25.5733 989.477 25.8453 989.423 26.08C989.37 26.3147 989.317 26.5227 989.263 26.704C989.21 26.8853 989.157 27.0613 989.103 27.232L987.663 32H986.271ZM996.5 32V23.232H997.492L997.748 24.624H997.812C997.994 24.144 998.324 23.7653 998.804 23.488C999.284 23.2107 999.866 23.072 1000.55 23.072C1001.19 23.072 1001.73 23.184 1002.18 23.408C1002.64 23.6213 1002.99 23.952 1003.24 24.4C1003.48 24.848 1003.6 25.4293 1003.6 26.144V32H1002.18V26.224C1002.18 25.584 1002.02 25.0987 1001.7 24.768C1001.38 24.4373 1000.91 24.272 1000.28 24.272C999.775 24.272 999.348 24.3893 998.996 24.624C998.644 24.8587 998.378 25.1787 998.196 25.584C998.015 25.9787 997.924 26.4267 997.924 26.928V32H996.5ZM1009.58 32.144C1008.71 32.144 1008.02 32.032 1007.5 31.808C1006.99 31.584 1006.61 31.2693 1006.38 30.864C1006.15 30.4587 1006.04 29.9787 1006.04 29.424C1006.04 28.9333 1006.11 28.544 1006.25 28.256C1006.4 27.9573 1006.58 27.7387 1006.79 27.6C1007.02 27.4613 1007.25 27.3707 1007.48 27.328V27.264C1007.27 27.2 1007.04 27.0933 1006.81 26.944C1006.58 26.7947 1006.38 26.5867 1006.22 26.32C1006.07 26.0533 1005.99 25.7173 1005.99 25.312C1005.99 24.9387 1006.08 24.5867 1006.25 24.256C1006.42 23.9253 1006.7 23.6533 1007.08 23.44C1007.47 23.2267 1007.97 23.12 1008.6 23.12C1008.86 23.12 1009.12 23.1413 1009.4 23.184C1009.68 23.216 1009.89 23.2747 1010.04 23.36L1009.79 24.464C1009.67 24.4213 1009.51 24.384 1009.32 24.352C1009.14 24.3093 1008.95 24.288 1008.75 24.288C1008.3 24.288 1007.97 24.3947 1007.75 24.608C1007.54 24.8107 1007.43 25.0827 1007.43 25.424C1007.43 25.7973 1007.52 26.08 1007.71 26.272C1007.9 26.464 1008.14 26.5973 1008.43 26.672C1008.72 26.736 1009.03 26.768 1009.35 26.768H1009.66V27.808H1009.35C1008.71 27.808 1008.24 27.9253 1007.93 28.16C1007.63 28.384 1007.48 28.7627 1007.48 29.296C1007.48 29.6053 1007.54 29.888 1007.66 30.144C1007.79 30.4 1008 30.6027 1008.3 30.752C1008.61 30.9013 1009.03 30.976 1009.58 30.976C1010.12 30.976 1010.54 30.9013 1010.84 30.752C1011.15 30.6027 1011.37 30.3893 1011.5 30.112C1011.63 29.824 1011.69 29.4827 1011.69 29.088V23.232H1013.11V28.992C1013.11 30.112 1012.83 30.9173 1012.25 31.408C1011.68 31.8987 1010.79 32.144 1009.58 32.144ZM1010.48 22.304C1010.41 22.1867 1010.35 22.0373 1010.31 21.856C1010.25 21.664 1010.23 21.4773 1010.23 21.296C1010.23 21.072 1010.28 20.864 1010.37 20.672C1010.47 20.4693 1010.64 20.304 1010.88 20.176C1011.13 20.048 1011.47 19.984 1011.91 19.984H1014.1V21.088H1012.28C1012.06 21.088 1011.89 21.1307 1011.76 21.216C1011.64 21.2907 1011.57 21.424 1011.57 21.616C1011.57 21.6907 1011.59 21.7707 1011.62 21.856C1011.64 21.9413 1011.67 22.0267 1011.72 22.112L1010.48 22.304ZM1017.54 32.16C1017.24 32.16 1016.96 32.112 1016.69 32.016C1016.43 31.92 1016.21 31.7493 1016.04 31.504C1015.87 31.2587 1015.78 30.9173 1015.78 30.48V24.224C1015.78 23.9253 1015.81 23.6853 1015.86 23.504C1015.92 23.312 1016 23.1253 1016.12 22.944C1016.25 22.7627 1016.42 22.5333 1016.65 22.256C1016.91 21.9253 1017.11 21.6533 1017.24 21.44C1017.37 21.2267 1017.43 20.992 1017.43 20.736C1017.43 20.4267 1017.33 20.1973 1017.14 20.048C1016.96 19.888 1016.68 19.808 1016.29 19.808C1015.96 19.808 1015.66 19.856 1015.38 19.952C1015.12 20.048 1014.89 20.144 1014.71 20.24V19.024C1014.86 18.9387 1015.08 18.8587 1015.38 18.784C1015.69 18.6987 1016.05 18.656 1016.47 18.656C1017.17 18.656 1017.74 18.816 1018.17 19.136C1018.6 19.4453 1018.82 19.9253 1018.82 20.576C1018.82 21.0027 1018.74 21.376 1018.58 21.696C1018.42 22.016 1018.24 22.304 1018.02 22.56C1017.84 22.7947 1017.69 22.992 1017.56 23.152C1017.44 23.3013 1017.35 23.456 1017.29 23.616C1017.23 23.776 1017.21 23.9893 1017.21 24.256V30.304C1017.21 30.5493 1017.26 30.7253 1017.37 30.832C1017.47 30.9387 1017.64 30.992 1017.86 30.992C1017.98 30.992 1018.09 30.9813 1018.2 30.96C1018.3 30.9387 1018.4 30.912 1018.49 30.88L1018.68 31.92C1018.48 32.016 1018.28 32.08 1018.09 32.112C1017.9 32.144 1017.72 32.16 1017.54 32.16ZM1023.26 32.16C1022.63 32.16 1022.08 32.0533 1021.63 31.84C1021.18 31.616 1020.83 31.28 1020.59 30.832C1020.35 30.384 1020.23 29.8027 1020.23 29.088V23.232H1021.66V29.008C1021.66 29.648 1021.82 30.1333 1022.14 30.464C1022.47 30.7947 1022.94 30.96 1023.56 30.96C1024.31 30.96 1024.88 30.72 1025.29 30.24C1025.71 29.76 1025.91 29.1147 1025.91 28.304V23.232H1027.34V32H1026.15L1026.09 30.704H1026.01C1025.82 31.1307 1025.48 31.4827 1025 31.76C1024.53 32.0267 1023.95 32.16 1023.26 32.16ZM1030.51 24.832V21.696C1030.51 21.056 1030.36 20.5973 1030.05 20.32C1029.75 20.0427 1029.36 19.904 1028.89 19.904V19.296L1030.08 18.784H1034.35V19.904H1031.1L1031.09 19.968C1031.32 20.128 1031.52 20.3733 1031.68 20.704C1031.85 21.024 1031.93 21.4453 1031.93 21.968V24.832H1030.51ZM1032.25 32.16C1031.97 32.16 1031.69 32.112 1031.42 32.016C1031.16 31.92 1030.94 31.7493 1030.77 31.504C1030.6 31.2587 1030.51 30.9173 1030.51 30.48V23.232H1031.93V30.304C1031.93 30.5493 1031.99 30.7253 1032.09 30.832C1032.2 30.9387 1032.37 30.992 1032.61 30.992C1032.7 30.992 1032.8 30.9813 1032.91 30.96C1033.02 30.9387 1033.12 30.912 1033.21 30.88L1033.41 31.92C1033.2 32.016 1033.01 32.08 1032.81 32.112C1032.62 32.144 1032.44 32.16 1032.25 32.16ZM1039.95 32V26.16C1039.95 25.4667 1039.79 24.976 1039.47 24.688C1039.16 24.3893 1038.64 24.24 1037.9 24.24C1037.37 24.24 1036.85 24.3147 1036.36 24.464C1035.88 24.6027 1035.42 24.8 1034.99 25.056V23.728C1035.3 23.568 1035.71 23.4187 1036.24 23.28C1036.77 23.1413 1037.37 23.072 1038.03 23.072C1038.59 23.072 1039.08 23.136 1039.5 23.264C1039.92 23.3813 1040.26 23.5627 1040.52 23.808C1040.8 24.0533 1041.01 24.368 1041.15 24.752C1041.29 25.1253 1041.36 25.568 1041.36 26.08V32H1039.95ZM1037.2 32.16C1036.26 32.16 1035.54 31.9467 1035.04 31.52C1034.54 31.0827 1034.3 30.4587 1034.3 29.648C1034.3 28.7627 1034.62 28.08 1035.26 27.6C1035.91 27.12 1036.96 26.8373 1038.41 26.752L1040.24 26.64V27.824L1038.6 27.936C1037.52 28.0107 1036.76 28.1813 1036.35 28.448C1035.94 28.7147 1035.74 29.104 1035.74 29.616C1035.74 30.096 1035.89 30.448 1036.19 30.672C1036.5 30.896 1036.92 31.008 1037.47 31.008C1037.65 31.008 1037.81 30.9973 1037.96 30.976C1038.11 30.944 1038.26 30.9067 1038.4 30.864L1038.62 31.936C1038.42 32.0107 1038.19 32.064 1037.95 32.096C1037.71 32.1387 1037.46 32.16 1037.2 32.16ZM1043.87 32V28.96C1043.87 28.288 1044.02 27.8027 1044.32 27.504C1044.62 27.1947 1045 26.9813 1045.46 26.864L1045.47 26.816L1043.71 26.144V25.616C1043.71 25.1787 1043.86 24.768 1044.14 24.384C1044.43 23.9893 1044.84 23.6747 1045.38 23.44C1045.92 23.1947 1046.57 23.072 1047.31 23.072C1047.96 23.072 1048.57 23.1787 1049.12 23.392C1049.67 23.5947 1050.12 23.92 1050.45 24.368C1050.79 24.8053 1050.96 25.3813 1050.96 26.096V32H1049.54V26.24C1049.54 25.5253 1049.32 25.0187 1048.88 24.72C1048.45 24.4107 1047.93 24.256 1047.3 24.256C1046.65 24.256 1046.13 24.3947 1045.74 24.672C1045.36 24.9387 1045.17 25.28 1045.17 25.696L1046.9 26.56L1046.77 27.328C1046.37 27.328 1046.03 27.4613 1045.73 27.728C1045.44 27.984 1045.3 28.3947 1045.3 28.96V32H1043.87ZM1055.53 32.16C1055.24 32.16 1054.96 32.112 1054.7 32.016C1054.43 31.92 1054.21 31.7493 1054.04 31.504C1053.87 31.2587 1053.79 30.9173 1053.79 30.48V23.232H1055.21V30.304C1055.21 30.5493 1055.26 30.7253 1055.37 30.832C1055.48 30.9387 1055.65 30.992 1055.88 30.992C1055.98 30.992 1056.08 30.9813 1056.19 30.96C1056.29 30.9387 1056.39 30.912 1056.49 30.88L1056.68 31.92C1056.48 32.016 1056.28 32.08 1056.09 32.112C1055.9 32.144 1055.71 32.16 1055.53 32.16ZM1063.24 32V26.16C1063.24 25.4667 1063.08 24.976 1062.76 24.688C1062.46 24.3893 1061.93 24.24 1061.2 24.24C1060.66 24.24 1060.15 24.3147 1059.66 24.464C1059.18 24.6027 1058.72 24.8 1058.28 25.056V23.728C1058.59 23.568 1059.01 23.4187 1059.53 23.28C1060.07 23.1413 1060.66 23.072 1061.32 23.072C1061.89 23.072 1062.37 23.136 1062.76 23.264C1063.17 23.392 1063.47 23.6267 1063.66 23.968C1064.03 24.1387 1064.29 24.4053 1064.43 24.768C1064.58 25.1307 1064.65 25.568 1064.65 26.08V32H1063.24ZM1060.49 32.16C1059.55 32.16 1058.83 31.9467 1058.33 31.52C1057.84 31.0827 1057.6 30.4587 1057.6 29.648C1057.6 28.7627 1057.92 28.08 1058.56 27.6C1059.21 27.12 1060.26 26.8373 1061.71 26.752L1063.53 26.64V27.824L1061.9 27.936C1060.81 28.0107 1060.06 28.1813 1059.64 28.448C1059.24 28.7147 1059.04 29.104 1059.04 29.616C1059.04 30.096 1059.19 30.448 1059.48 30.672C1059.79 30.896 1060.22 31.008 1060.76 31.008C1060.95 31.008 1061.11 30.9973 1061.26 30.976C1061.41 30.944 1061.55 30.9067 1061.69 30.864L1061.92 31.936C1061.71 32.0107 1061.49 32.064 1061.24 32.096C1061.01 32.1387 1060.76 32.16 1060.49 32.16ZM1063.61 24.464L1062.81 23.712C1063.09 23.6693 1063.35 23.5627 1063.6 23.392C1063.84 23.2213 1063.96 22.976 1063.96 22.656H1065.36C1065.36 22.9867 1065.28 23.28 1065.12 23.536C1064.97 23.7813 1064.76 23.984 1064.49 24.144C1064.23 24.2933 1063.93 24.4 1063.61 24.464ZM1071.49 32.16C1070.81 32.16 1070.21 32.0267 1069.71 31.76C1069.22 31.4827 1068.89 31.0987 1068.7 30.608H1068.64L1068.56 32H1067.39V23.232H1068.82V28.304C1068.82 28.8373 1068.91 29.3067 1069.09 29.712C1069.28 30.1067 1069.55 30.416 1069.9 30.64C1070.27 30.8533 1070.7 30.96 1071.2 30.96C1071.83 30.96 1072.3 30.7947 1072.61 30.464C1072.92 30.1333 1073.07 29.648 1073.07 29.008V23.232H1074.5V29.104C1074.5 29.808 1074.37 30.384 1074.13 30.832C1073.89 31.28 1073.55 31.616 1073.1 31.84C1072.66 32.0533 1072.12 32.16 1071.49 32.16ZM1067.7 21.84V21.216L1068.87 20.704H1074.5V21.84H1067.7ZM1070.99 21.216V19.408H1072.18V21.216H1070.99ZM1073.33 21.216V19.408H1074.5V21.216H1073.33ZM1080.2 32.16C1079.04 32.16 1078.18 31.8613 1077.6 31.264C1077.04 30.656 1076.76 29.7067 1076.76 28.416C1076.76 28.2027 1076.76 27.9733 1076.77 27.728C1076.79 27.472 1076.82 27.2213 1076.84 26.976H1080.2V28.096H1078.18V28.416C1078.18 29.088 1078.26 29.616 1078.4 30C1078.55 30.3733 1078.77 30.6347 1079.06 30.784C1079.36 30.9333 1079.73 31.008 1080.16 31.008C1080.64 31.008 1081.06 30.9173 1081.41 30.736C1081.76 30.5547 1082.04 30.224 1082.23 29.744C1082.42 29.264 1082.52 28.576 1082.52 27.68C1082.52 26.8907 1082.43 26.2453 1082.26 25.744C1082.09 25.2427 1081.81 24.8693 1081.41 24.624C1081.03 24.3787 1080.51 24.256 1079.84 24.256C1079.5 24.256 1079.17 24.288 1078.85 24.352C1078.53 24.4053 1078.22 24.4907 1077.92 24.608C1077.63 24.7147 1077.33 24.8533 1077.04 25.024V23.696C1077.26 23.5787 1077.52 23.4773 1077.83 23.392C1078.14 23.296 1078.48 23.2213 1078.85 23.168C1079.23 23.104 1079.62 23.072 1080.02 23.072C1080.96 23.072 1081.72 23.264 1082.29 23.648C1082.88 24.0213 1083.31 24.5547 1083.57 25.248C1083.84 25.9307 1083.97 26.7413 1083.97 27.68C1083.97 28.6187 1083.85 29.424 1083.6 30.096C1083.36 30.768 1082.96 31.28 1082.4 31.632C1081.86 31.984 1081.12 32.16 1080.2 32.16ZM1089.3 32.16C1088.68 32.16 1088.13 32.0533 1087.67 31.84C1087.22 31.616 1086.88 31.28 1086.63 30.832C1086.4 30.384 1086.28 29.8027 1086.28 29.088V23.232H1087.7V29.008C1087.7 29.648 1087.86 30.1333 1088.18 30.464C1088.52 30.7947 1088.99 30.96 1089.61 30.96C1090.36 30.96 1090.93 30.72 1091.34 30.24C1091.75 29.76 1091.96 29.1147 1091.96 28.304V23.232H1093.38V32H1092.2L1092.14 30.704H1092.06C1091.86 31.1307 1091.53 31.4827 1091.05 31.76C1090.58 32.0267 1090 32.16 1089.3 32.16ZM1096.09 32V26.4C1096.09 25.3227 1096.38 24.5013 1096.96 23.936C1097.53 23.36 1098.45 23.072 1099.71 23.072C1100.98 23.072 1101.9 23.36 1102.46 23.936C1103.04 24.5013 1103.32 25.3227 1103.32 26.4V32H1101.9V26.4C1101.9 25.6853 1101.71 25.152 1101.34 24.8C1100.97 24.4373 1100.42 24.256 1099.69 24.256C1098.98 24.256 1098.43 24.4373 1098.06 24.8C1097.7 25.152 1097.52 25.6853 1097.52 26.4V28.176L1097.56 28.192C1097.8 27.776 1098.09 27.504 1098.43 27.376C1098.77 27.2373 1099.25 27.168 1099.87 27.168H1100.4V28.336H1099.87C1099.22 28.336 1098.72 28.4267 1098.38 28.608C1098.05 28.7893 1097.82 29.0293 1097.69 29.328C1097.58 29.616 1097.52 29.9413 1097.52 30.304V32H1096.09ZM1107.68 32.16C1107.27 32.16 1106.86 32.1173 1106.47 32.032C1106.08 31.9467 1105.67 31.7867 1105.23 31.552L1105.68 30.464C1105.92 30.6027 1106.18 30.7253 1106.48 30.832C1106.78 30.928 1107.13 30.976 1107.52 30.976C1108.31 30.976 1108.92 30.688 1109.36 30.112C1109.81 29.5253 1110.03 28.6827 1110.03 27.584C1110.03 26.5067 1109.8 25.6853 1109.35 25.12C1108.9 24.544 1108.2 24.256 1107.27 24.256C1106.92 24.256 1106.58 24.2933 1106.23 24.368C1105.87 24.4427 1105.56 24.5547 1105.3 24.704V23.504C1105.61 23.344 1105.94 23.232 1106.31 23.168C1106.68 23.104 1107.05 23.072 1107.43 23.072C1108.39 23.072 1109.16 23.264 1109.76 23.648C1110.36 24.0213 1110.8 24.544 1111.07 25.216C1111.35 25.888 1111.49 26.6773 1111.49 27.584C1111.49 28.992 1111.17 30.1067 1110.53 30.928C1109.9 31.7493 1108.95 32.16 1107.68 32.16ZM1116.28 32V25.776C1116.28 25.2533 1116.15 24.8693 1115.91 24.624C1115.67 24.3787 1115.27 24.256 1114.71 24.256C1114.32 24.256 1113.96 24.3093 1113.62 24.416C1113.29 24.512 1112.97 24.6507 1112.66 24.832V23.552C1112.87 23.4453 1113.18 23.3387 1113.57 23.232C1113.97 23.1253 1114.44 23.072 1114.98 23.072C1115.53 23.072 1116.01 23.152 1116.42 23.312C1116.83 23.472 1117.14 23.7387 1117.36 24.112C1117.59 24.4747 1117.7 24.96 1117.7 25.568V32H1116.28ZM1124.52 32.16C1123.84 32.16 1123.25 32.0267 1122.74 31.76C1122.25 31.4827 1121.92 31.0987 1121.74 30.608H1121.67L1121.59 32H1120.42V23.232H1121.85V28.304C1121.85 28.8373 1121.94 29.3067 1122.12 29.712C1122.31 30.1067 1122.58 30.416 1122.94 30.64C1123.3 30.8533 1123.73 30.96 1124.23 30.96C1124.86 30.96 1125.33 30.7947 1125.64 30.464C1125.95 30.1333 1126.1 29.648 1126.1 29.008V23.232H1127.53V29.104C1127.53 29.808 1127.41 30.384 1127.16 30.832C1126.93 31.28 1126.58 31.616 1126.14 31.84C1125.69 32.0533 1125.15 32.16 1124.52 32.16ZM1131.18 32V28.096H1129.96V26.976H1132.54V30.848H1132.75C1133.23 30.848 1133.63 30.7413 1133.95 30.528C1134.27 30.3147 1134.51 29.968 1134.67 29.488C1134.83 29.008 1134.91 28.3733 1134.91 27.584C1134.91 26.7947 1134.82 26.1547 1134.64 25.664C1134.47 25.1733 1134.18 24.816 1133.79 24.592C1133.4 24.368 1132.88 24.256 1132.22 24.256C1131.72 24.256 1131.23 24.3253 1130.76 24.464C1130.31 24.592 1129.86 24.7947 1129.44 25.072V23.744C1129.76 23.552 1130.18 23.392 1130.7 23.264C1131.22 23.136 1131.79 23.072 1132.4 23.072C1133.37 23.072 1134.14 23.2533 1134.72 23.616C1135.3 23.968 1135.72 24.48 1135.98 25.152C1136.24 25.824 1136.36 26.64 1136.36 27.6C1136.36 28.528 1136.24 29.3227 1135.98 29.984C1135.73 30.6347 1135.33 31.136 1134.76 31.488C1134.21 31.8293 1133.46 32 1132.52 32H1131.18ZM1141.1 32.16C1140.47 32.16 1139.89 32.1013 1139.34 31.984C1138.81 31.856 1138.36 31.7067 1137.98 31.536L1138.4 30.384C1138.62 30.4693 1138.88 30.56 1139.17 30.656C1139.46 30.752 1139.77 30.832 1140.1 30.896C1140.44 30.9493 1140.78 30.976 1141.14 30.976C1141.7 30.976 1142.17 30.8693 1142.54 30.656C1142.92 30.4427 1143.1 30.1333 1143.1 29.728C1143.1 29.4827 1143.03 29.2747 1142.9 29.104C1142.77 28.9227 1142.57 28.7573 1142.29 28.608C1142.01 28.4587 1141.65 28.3147 1141.22 28.176C1140.54 27.9627 1139.97 27.7387 1139.5 27.504C1139.05 27.2587 1138.69 26.9707 1138.45 26.64C1138.21 26.2987 1138.1 25.8773 1138.1 25.376C1138.1 24.928 1138.21 24.5333 1138.45 24.192C1138.69 23.84 1139.07 23.568 1139.57 23.376C1140.08 23.1733 1140.73 23.072 1141.52 23.072C1142.03 23.072 1142.51 23.12 1142.96 23.216C1143.42 23.3013 1143.78 23.424 1144.03 23.584V24.784C1143.85 24.6987 1143.62 24.6133 1143.34 24.528C1143.08 24.4427 1142.78 24.3733 1142.46 24.32C1142.14 24.2667 1141.81 24.24 1141.47 24.24C1140.76 24.24 1140.25 24.352 1139.95 24.576C1139.66 24.7893 1139.52 25.0347 1139.52 25.312C1139.52 25.5467 1139.58 25.744 1139.71 25.904C1139.85 26.064 1140.08 26.2187 1140.4 26.368C1140.73 26.5173 1141.17 26.688 1141.73 26.88C1142.24 27.0507 1142.71 27.248 1143.14 27.472C1143.56 27.696 1143.9 27.9787 1144.14 28.32C1144.4 28.6507 1144.53 29.0773 1144.53 29.6C1144.53 30.048 1144.42 30.4693 1144.19 30.864C1143.98 31.248 1143.62 31.5627 1143.12 31.808C1142.62 32.0427 1141.95 32.16 1141.1 32.16ZM1137.71 21.84V21.216L1138.88 20.704H1144.51V21.84H1137.71ZM1147.89 32L1145.16 23.232H1146.6L1148.96 30.768H1149.16C1149.41 30.768 1149.66 30.7093 1149.91 30.592C1150.15 30.464 1150.36 30.304 1150.53 30.112C1150.85 29.76 1151.09 29.3173 1151.24 28.784C1151.39 28.24 1151.46 27.7067 1151.46 27.184C1151.46 26.2987 1151.26 25.6053 1150.85 25.104C1150.46 24.592 1149.91 24.336 1149.2 24.336C1149.07 24.336 1148.93 24.3467 1148.79 24.368C1148.66 24.3893 1148.55 24.416 1148.47 24.448L1148.12 23.312C1148.34 23.248 1148.55 23.2053 1148.74 23.184C1148.94 23.1627 1149.12 23.152 1149.28 23.152C1149.82 23.152 1150.29 23.232 1150.71 23.392C1151.13 23.5413 1151.5 23.7653 1151.8 24.064C1152.17 24.4267 1152.44 24.88 1152.61 25.424C1152.79 25.968 1152.88 26.5707 1152.88 27.232C1152.88 28.064 1152.76 28.8053 1152.5 29.456C1152.24 30.096 1151.92 30.608 1151.54 30.992C1151.23 31.3013 1150.85 31.5467 1150.4 31.728C1149.96 31.9093 1149.39 32 1148.69 32H1147.89Z" fill="#2B2B2B"/>
</svg>
